<?xml version="1.0" encoding="UTF-8"?>
<!DOCTYPE svg PUBLIC "-//W3C//DTD SVG 1.1//EN" "http://www.w3.org/Graphics/SVG/1.1/DTD/svg11.dtd">
<!-- Creator: CorelDRAW 2020 (64-Bit) -->
<svg xmlns="http://www.w3.org/2000/svg" xml:space="preserve" width="60mm" height="80mm" version="1.1" style="shape-rendering:geometricPrecision; text-rendering:geometricPrecision; image-rendering:optimizeQuality; fill-rule:evenodd; clip-rule:evenodd"
viewBox="0 0 6000 8000"
 xmlns:xlink="http://www.w3.org/1999/xlink"
 xmlns:xodm="http://www.corel.com/coreldraw/odm/2003">
 <defs>
  <style type="text/css">
   <![CDATA[
    .str1 {stroke:white;stroke-width:12;stroke-miterlimit:22.9256}
    .str0 {stroke:white;stroke-width:12;stroke-linecap:round;stroke-linejoin:round;stroke-miterlimit:22.9256}
    .fil1 {fill:#1D68B0}
    .fil0 {fill:#A0B5DC}
   ]]>
  </style>
 </defs>
 <g id="Ebene_x0020_1">
  <metadata id="CorelCorpID_0Corel-Layer"/>
  <path class="fil0 str0" d="M5314.01 3553.42c-37.53,-25.04 6.15,26.65 -47.85,26.65 -1.93,3.87 -12.63,5.28 -15.75,4.26 0,-53.11 -44.93,2.97 -58.17,-3.65 -42.9,0 -66.46,31.83 -89.05,54.52 -3.8,-1.9 -111.47,-57.22 -111.47,-20.59 6.53,13.04 -41.78,60.57 -41.78,61.18 19.71,14.8 -17.75,81.19 -36.37,81.19 0,-44.85 -40.83,16.77 -55.73,1.8 0,-16.13 -21.56,3.39 -26.04,7.89 -20.74,-6.91 -31.35,6.79 -43.01,9.68 -14.21,-9.46 -91.34,1.54 -82.4,-16.35 -14.09,0 -23.12,14.53 -24.83,14.53 -19.98,-49.84 -75.74,-39.23 -75.74,-61.77 -8.81,-2.95 -33.24,32.3 -41.18,8.47 -8.47,0 -32.71,47.26 -35.14,46.66 -7.55,-18.89 -34.54,7 -34.54,-36.97 -13.48,-20.23 -9.54,22.9 -0.6,-21.81 0,-17.5 -22.96,-38.02 -0.61,-43.61 0,-29.57 -50.7,-63.4 -27.26,-75.11 -5.84,-7.03 -19.23,-8.67 -24.22,-23.63 0,9.9 -9.39,3.02 -12.12,4.84 10.86,10.86 -5.21,2.34 -16.96,-13.34 -16.79,-23.75 72.84,-54.98 50.28,-77.54 10.08,0 -29.28,-119.71 -16.96,-121.76 0,-47.04 -46.78,21.83 -58.78,-26.04 15.8,0 -6.62,-19.54 -9.08,-4.87 -11.34,-22.71 -24.82,16.09 -24.82,-18.15 -29.55,-29.53 -57.88,17.69 -72.11,-39.38 -25.1,7.15 -97.06,-42.86 -106.63,-30.91 -14.36,72.09 -97.52,-40.04 -106.6,-3.63 -39.86,0 -136.17,-117.23 -122.98,-143.57 1.8,1.22 33.71,-38.57 29.67,-40.59 0,-6.23 -17.98,0.44 -8.47,-9.08 -24.12,-4.84 -4.82,-34.66 0,-58.78 16.23,-36.53 -0.24,-118.01 13.34,-124.78 3.89,0 20.59,-30.91 4.23,-20 -3.14,-4.16 8.25,-35.46 -12.73,-14.53 -17.96,-9.01 -15.26,-22.39 -36.94,-16.97 -4.97,19.77 -29.28,23.3 -19.4,-16.35 -25.84,-8.62 -26.11,20.74 -16.35,-24.24 13.89,-23.17 0.82,-42.42 5.45,-56.34 71.16,29.11 10.29,-82.39 11.51,-84.21 17.45,-17.43 -0.85,-29.33 11.51,-47.85 0,-14.8 28.09,-25.99 1.83,-65.44 0,-43.03 -86.84,29.35 -54.54,-35.12 -7.3,-3.68 -6.28,28.23 -27.87,6.66 -12.49,12.49 -162.19,-2.62 -121.76,-43.02 7.98,-23.93 -87.23,-31.55 -87.23,-53.3 -8.37,-12.56 -30.3,10.17 -30.3,-13.34 8.23,-32.93 -8.81,-7.3 -40.57,-28.48 -52.01,0 -44.88,-36.8 -101.17,-0.61 -11.08,3.7 -80.07,-67.82 -29.09,-50.86 39.5,0 47.85,14.65 47.85,-21.83 20.79,15.57 116.56,10.9 89.05,-30.28 -5.03,-6.74 -9.32,-29.45 -3.62,-35.14 24.87,-8.25 31.22,-29.09 58.16,-29.09 0,5.04 13.03,-0.87 13.93,0 6.1,15.31 49.74,29.6 69.07,10.32 -3.09,-12.36 -32.59,-21.66 -3.05,-19.39 28.82,4.81 31.33,-35.39 47.27,-19.38 8.22,-8.25 27.87,5.82 27.87,-22.41 35.99,0 10.22,-27.11 41.78,-46.05 -10.32,-17.21 3.41,-32.3 13.34,2.41 34.07,0 24.27,-25.41 44.83,5.45 0.1,-0.02 27.16,-17.42 27.26,-17.55 7.5,0 2.77,-0.51 5.45,4.85 0,31.49 113.9,32.93 113.9,85.4 47.63,-23.71 159.93,6.5 159.93,32.12 -12.66,12.66 35.14,18.87 35.14,7.87 19.83,0 52.96,4.23 62.99,4.23 0.6,0.61 22.41,-19.98 22.41,-3.02 -22.17,0 -15.65,31.13 10.3,18.18 1.68,-0.41 38.33,-33.49 42.42,-37.57 15.5,0 3.11,-26.05 22.41,-26.05 0.61,0.61 25.44,-8.47 26.04,-9.07 0.61,0 32.71,49.72 32.71,12.72 8.67,-8.68 28.82,-90.58 73.31,-19.39 19.71,0 13.31,-31.5 27.87,-31.5 0,-28.35 33.31,13.73 33.31,-28.47 10.49,-5.23 -2.5,-30.81 11.52,-44.83 10.56,5.26 2.92,-40.6 36.97,-40.6 3.6,-7.23 36.31,-67.85 68.43,-67.85 0,17.57 60.75,-6.47 34.54,-16.96 -19.52,0 -30.89,-34.95 -7.89,-50.29 -6.2,24.93 84.19,81.73 59.39,106.63 -4.99,9.95 67.32,-12.46 76.32,14.53 21.18,0 26.48,-7.4 35.14,-28.45 44.42,24.21 58.44,-12.68 64.21,39.38 -3.07,21.49 -96.74,145.61 -44.83,114.48 12.73,-5.45 75.23,21.78 61.18,-13.34 5.97,-3.38 16.09,-5.76 20.62,-10.29 0,-19.08 32.42,-30.96 48.45,-40.6 11.13,0 41.6,89.47 3.63,108.45 -26.26,0 10.32,86.62 -7.86,104.8 7.13,7.16 -34.8,66.64 -44.83,66.64 -98.03,49.14 -33.76,76.59 -69.68,148.43 -1.02,6.21 81.97,56.4 102.39,66.64 0.19,0 164.08,134.91 168.42,143.57 22.31,33.44 -11.98,25.19 0,55.13 38.72,51.59 -41.67,68.24 -20.01,133.27 0,91.9 46.29,65.57 94.5,113.9 0,56 -37.94,89.83 21.84,129.65 29.1,29.11 -20.59,75.86 -10.32,106.62 23.63,35.46 -28.45,62.62 -28.45,84.8 -25.68,25.67 -41.21,52.64 9.68,78.14 10.3,61.75 97.82,97.96 52.09,166.62l0 2.41z"/>
  <path class="fil0 str1" d="M3170.07 1628.18c4.47,2.23 -8.87,14.14 -13.93,9.08 -7.02,2.35 -16.75,25.66 -14.54,27.87 0,66.09 20.42,119.95 75.12,119.95 42.47,8.51 39.51,121.77 -21.2,121.77 0,-9.69 -19.06,-17.17 -11.51,5.45 -10.24,20.44 9.89,48.46 -23.02,48.46 0,35.9 -83.6,21.57 -83.6,86.64 6.93,3.45 -9.51,39.37 -24.23,39.37 -19.05,-9.52 -105.28,-58.48 -121.77,-55.73 -28.45,0 2.97,-33.26 -15.15,-15.15 -2.2,0 -21.8,-21.11 -21.8,-26.65 -10.97,0 -16.12,-23.02 -24.84,-23.02 0,-18.68 -33.32,-15.24 -33.32,-32.72 -2.29,-9.12 4.84,-41.8 4.24,-40.58 17.39,17.39 31.07,-57.73 18.78,-45.44 -1.21,0 -23.02,-30.9 -22.42,-31.5 -4.99,-12.47 40.06,-85.83 -15.75,-41.2 -5.72,11.46 -37.93,-8.56 -24.84,17.57 -11.29,2.83 -0.5,30.61 -18.17,15.15 -40.91,1.27 -20.99,45.79 -65.43,23.62 -5.82,5.8 -51.14,99.12 -64.82,44.23 7.4,0 -18.78,-35.65 -18.78,-7.88 3.29,1.64 -10.37,27.87 -7.27,27.87 9.63,19.27 -46.43,7.41 -76.93,-23.02 -24.16,-14.5 -36.45,-69.04 -21.21,-30.9 26.04,39.09 -5.54,-50.37 -21.81,-66.64 -54.7,0 -47.1,-113.82 -95.71,-126 -10.15,-30.39 -113.31,-17.78 -139.34,-35.14 -48.64,24.37 -48.53,-13.34 -75.12,-39.98 0,-27.39 -52.93,-73.01 -21.2,-83.61 22.43,-11.16 36.64,11.13 56.94,6.06 8.91,-5.94 1.97,-111.33 -53.31,-74.51 -20.86,0 -31.96,-77.36 -9.69,-88.45 11.46,-34.48 -17.65,-16.3 33.32,-33.32 36.01,-35.92 40.77,-76.08 -11.51,-13.33 -22.94,30.6 -14.91,-23.4 -32.71,-12.72 -25.26,14.44 -24.86,-11.62 -47.25,1.82 -6.7,-13.36 -15.7,29.13 -32.72,12.12 -28.2,0 -24.23,-59.2 -24.23,-20.6 14.8,29.53 -24.52,-58 -10.91,-10.3 16.02,48.1 -26.92,-25.87 10.91,-44.83 17.09,17.09 51.91,3.78 24.84,-9.69 0,5.85 -26.05,7.07 -26.05,-9.09 9.4,-28.29 110.11,-23.02 138.73,-23.02 0,-13.95 96.72,-54.65 63,-79.97 -9.25,-41.56 -32.71,13.81 -32.71,20.6 -8.99,0 -58.16,46.34 -58.16,-9.08 -8.15,-8.16 68.04,-77.12 8.48,-54.53 1.54,4.63 -33.5,4.96 -15.15,-6.06 61.52,20.54 41.45,-67.49 8.49,-34.53 0,0.61 17.12,-28.4 3.63,-35.13 11.96,-12.01 -43.19,-28.36 -35.74,-58.16 -35.2,-35.37 3.45,25.44 -41.8,25.44 0,42.51 -122.1,54.08 -38.17,26.05 27.67,0 87.89,-67.08 50.29,-72.09 0,-32.89 -12.91,-41.62 -25.45,-79.36 -39.6,0 23.83,-88.41 -69.06,-57.55 -52.85,52.85 -48.86,-2.42 -80.57,-2.42 -9.45,23.63 -41.15,101.21 -23.02,119.34 -5.8,11.57 -10.91,-18.15 -8.49,-25.44 0,-32.06 31.16,-257.06 75.73,-245.96 46.31,23.21 -12.72,-1.14 -12.72,10.9 11.21,22.53 42.14,15.23 -9.69,41.2 -45.42,90.62 22.44,111.99 109.04,97.53 0.77,0 15.75,-3.02 18.17,-6.66 13.94,-27.9 33.49,-0.6 59.98,-0.6 4.54,4.53 77.72,-12.96 97.53,-3.03 31.8,31.65 85.52,20.9 119.95,38.16 7.88,0 24.09,7.4 27.26,14.54 -24.01,32 36.85,35.14 43.62,35.14 12.88,8.59 25.2,-47.5 43.02,-29.69 0,5.61 6.31,36.26 7.87,39.38 0,3.64 8.57,-24.84 32.11,-24.84 4.73,-4.72 44.83,-39.38 44.83,-39.98 -1.21,-1.82 14.33,-20.35 3.02,7.87 -9.31,37.39 89.98,41.71 106.02,68.46 64.86,77.86 32.75,-61.44 81.79,12.12 21.89,65.59 47.26,85.43 29.07,158.11 45.21,45.21 -92.68,98.75 -93.29,99.96 0,52.35 125.77,-35.31 153.87,-7.27 45.37,22.68 12.12,24.87 12.12,41.19 46.64,46.64 -39.85,54.08 -37.56,53.31 48.17,0 21.32,49.62 21.81,48.47 25.68,-19.28 10.85,-13.17 30.29,-52.1 -11.81,-23.65 71.57,-73.82 110.86,-34.53 51.24,25.68 97.42,44.28 134.49,81.18 0,51.68 124.86,-45.45 137.52,-58.16 0.52,1.04 48.69,6.66 31.5,6.66 -9.59,4.8 -15.75,-5.55 -15.75,3.03 42.59,10.68 72.7,-43.36 72.7,-0.6 -77.98,26.03 38.76,138.01 -61.8,188.4 -40.33,26.87 -54.44,87.32 -95.72,46.04 0,28.55 -72.82,98.14 26.66,98.14 16.24,5.42 4.82,64.24 0,69.06 -12.88,25.78 -57.86,6.36 -41.8,22.42 6.15,-6.15 15.14,-4.11 15.14,3.03zm193.26 -468.29c-25.3,0 5.88,37.53 -41.2,13.93 -0.03,0.02 -10.9,-3.86 -10.9,-5.45 11.54,-34.72 -22.42,-40.32 -22.42,-27.86 -30.5,0 10.25,24.79 -18.78,3.03 -16.37,-8.21 1.61,-101.85 55.13,-75.13 54.44,0 108,104.81 84.81,104.81 -12.6,-5.05 -25.45,-10.1 -39.37,-5.45 -22.71,0 8.6,2.7 -7.27,-7.88zm-1409.1 -274.43c19.2,-38.37 124.89,-25.64 82.39,38.17 0,11.13 -105.77,8.64 -82.39,-38.17zm122.98 162.96c-0.32,-0.96 36.25,-22.34 23.62,3.03 14.16,28.39 -58.76,77.61 -58.76,12.12 1.21,-1.82 33.68,-15.35 35.14,-15.15zm-151.46 -115.7c0,24.52 31.49,45.43 14.54,45.43 18.22,12.14 -15.33,18.32 -34.53,-19.99 -16.36,-16.37 -8.85,-25.68 5.46,-39.98 28.28,-42.47 4.05,4.05 14.53,14.54zm54.53 184.16c14.02,0 12.11,33.32 12.72,33.93 1.28,1.27 -57.13,-11.78 -12.72,-33.93zm-6.06 -47.86c-6.84,-54.89 18.78,4.42 18.78,19.99 -12.7,12.7 -17.15,-14.26 -18.78,-19.99zm49.67 -50.28c4.78,-2.39 6.26,5.86 6.67,5.45 9.73,29.14 -44.12,-2.42 -12.72,-2.42 2.17,-0.72 4.41,-1.39 6.05,-3.03zm485.25 796.03c-13.48,-53.86 -21.82,-27.27 2.43,-15.15 1.34,4.69 4.91,29.83 -2.43,15.15zm-420.43 -354.4c1.77,0 -2.43,16.35 0,18.78 -0.6,0 -21.36,13.05 -8.48,-12.72l3.64 -3.64 4.84 -2.42zm-115.1 -444.66c8.67,0 4.53,37.58 -7.27,13.94 0,-4.6 1.21,-13.94 7.27,-13.94zm1246.14 552.49c-13.33,0 -8.59,11.51 -19.38,11.51 -3.98,-15.9 11.71,-19.15 19.38,-11.51zm-1101.35 -603.38c3.9,0 -1.21,21.21 -12.11,10.3 -3.95,-7.88 12.06,-10.34 12.11,-10.3zm-447.69 385.9c0,-1.43 7.34,-1.12 9.69,1.82 12.64,18.97 -3.33,1.36 -9.69,-1.82zm24.23 -0.61c0.17,0 3.82,4.85 1.82,4.85 -6.37,6.34 -13.61,-4.85 -1.82,-4.85zm324.71 -232.62c7.74,-11.59 9.22,15.04 1.22,3.03l-0.61 -1.82 -0.61 -1.21zm87.85 1.21c0,-3.04 16.82,-0.61 7.87,-0.61 -2.28,4.56 -3,5.48 -7.87,0.61zm54.52 287.75c5.94,0 -0.61,11.19 -0.61,0.61l0.61 -0.61zm-25.45 -436.18c2.46,2.46 -11.33,-0.6 0,-0.6l0 0.6zm690.01 239.9l4.85 0c0,2.28 -3.98,1.74 -4.85,0zm-820.86 -148.42c2.73,0 -8.21,2.9 -1.21,-0.6l1.21 0.6z"/>
  <path class="fil0 str0" d="M2619.4 1909.27l0 -1.21 -0.6 -1.21 0 -1.21 0.6 -1.82 0.61 -3.63 -0.61 0 1.21 -1.82 1.21 0 1.21 -0.61 -1.21 -2.42 -0.6 0 0.6 1.21 -1.21 0 -1.21 -2.42 1.21 -2.43 2.42 -3.03 0.61 -0.6 0.61 0.6 0.6 -0.6 0 -0.61 0.61 -1.81 -1.21 -2.43 -0.61 -2.42 1.82 -3.64 0.6 -1.81 3.64 1.21 1.82 -7.27 -1.22 -1.21 -1.21 -0.61 0 -0.6 1.21 -1.82 0.61 -1.21 0.61 -0.61 0.6 -5.45 2.43 -0.61 0 -2.42 3.02 0 -0.6 4.85 0.6 5.45 8.49 3.63 1.21 0.61 0 0.6 1.21 1.22 2.42 -1.22 1.21 1.82 -0.6 2.42 -2.43 0.61 0 0.61 -1.21 0 0.61 2.42 3.03 3.63 0 0.61 1.82 1.21 1.21 1.82 0.6 -0.61 6.06 6.06 4.85 2.43 0 -0.61 0.6 -0.61 1.22 0 1.81 -1.21 0.61 -0.61 1.81 0 0 -1.21 -0.6 -1.21 0.6 -1.21 0.61 -0.6 0.61 0 0 -2.43 3.03 0 -0.61 -1.21 2.42 -1.21 2.43 0 0.6 -0.61 1.82 -0.6 0 -2.43 1.82 -3.03 0 -1.81 3.03 -1.21 0 -0.61 0.6 -3.03 0.61 -0.6 3.03 -3.03 1.21 -1.22 1.21 -1.21 1.21 -0.6 0.61 -0.61 3.03 -1.21 -1.82 -1.82 0.6 -1.82 2.43 -1.81 0.6 -0.61 0 -0.6 0.61 -0.61 1.21 0 0 -3.03 1.21 -0.61 0.61 -0.6 0 -1.21 -0.61 -1.82 3.03 -1.82 0.61 -1.21 0 -1.82 -0.61 -0.6 0 -2.42 0.61 -0.61 0.6 -1.82 0 -0.6 1.22 -0.61 1.21 0.61 1.21 -0.61 0 -1.21 0.6 -0.61 1.21 0.61 1.82 -1.21 0 1.21 0.61 0.6 1.21 0.61 2.42 -0.61 0.61 0.61 1.21 0 1.21 0.61 0.61 -0.61 0.61 0.61 1.21 0 3.02 -0.61 1.22 1.21 0.6 0.61 1.21 0 0.61 -1.21 1.21 1.21 1.21 0 0.61 0.6 0.6 0.61 1.82 -0.61 0.61 1.22 0.6 0 1.22 -1.22 2.42 1.82 1.21 -1.82 1.21 0.61 0.61 0.61 0.6 -0.61 1.21 0.61 1.82 0.6 0.61 -1.21 0 -5.45 1.82 -1.82 0 -6.06 0.6 -1.82 -1.21 -1.81 1.82 -5.46 -0.61 -1.21 2.42 -3.03 1.82 -1.21 0.61 0 0.6 0.61 1.22 -0.61 19.38 -0.6 4.85 4.24 1.81 -0.61 2.43 -0.6 2.42 -0.61 2.42 0 -0.6 -3.03 -1.21 -1.82 0.6 -0.6 -3.03 -0.61 0 -1.81 2.43 -0.61 0 -1.21 1.21 -3.64 1.21 -1.81 0 0.6 0.61 -0.6 0.6 -1.82 2.42 -0.61 -0.6 -1.21 0 -1.21 1.21 -1.21 -4.85 -2.43 1.82 -2.42 -1.21 -0.61 -0.61 -1.21 0.61 -0.6 1.82 0 1.21 -1.21 0 -0.61 3.03 -5.45 6.66 1.21 1.82 1.82 1.21 0 0.61 1.21 3.02 1.21 3.04 -0.61 0 -0.6 1.21 -0.61 0.6 1.21 0 1.22 1.82 0 0 -1.22 1.21 -1.81 1.21 -2.43 3.03 -2.42 0.61 -0.61 2.42 -1.81 1.21 -0.61 1.82 0.61 1.82 -2.43 0.6 -0.6 1.82 -1.21 4.85 -3.03 0.6 -3.64 1.21 -1.21 1.82 0 2.42 0.61 1.82 1.21 1.21 2.42 3.64 1.82 0 0.6 1.21 0.61 0.61 0 0.6 -0.61 1.82 0.61 -1.21 6.06 0 0.6 -1.21 2.43 -3.03 7.87 -1.21 1.82 -0.61 -0.61 -1.21 0 -0.61 -0.6 -0.6 -1.21 -0.61 -0.61 -0.61 0 -2.42 1.21 -0.6 0 -0.61 1.21 0.61 0 0 0.61 0.6 0.6 -5.45 3.04 0 2.42 1.21 0.6 0 4.25 -0.6 4.84 0 1.21 -1.22 0 -1.21 2.43 -0.6 0 0 2.42 -0.61 1.21 -1.21 1.21 -1.82 1.21 -0.6 0 -0.61 -0.6 -0.61 0.6 -1.21 0 1.21 3.03 0.61 -0.6 0.61 0 0.6 0.6 3.03 1.21 1.21 0 0 -0.6 1.21 3.03 -0.6 0.6 0 1.22 1.82 0.6 1.81 -1.21 1.21 2.42 3.03 0 0.61 -0.6 0.6 0 0 0.6 1.22 1.21 -1.22 1.22 1.22 0.6 1.21 1.82 1.21 -0.61 1.82 0 2.42 4.24 -0.61 1.22 1.22 1.21 2.42 0.6 1.21 0 0 1.21 -0.6 1.22 0.6 0.6 0.61 1.21 0 1.22 0.6 1.21 -1.21 4.24 -3.03 3.63 1.82 0 1.21 0.61 0.61 1.21 1.21 0 0.6 -0.61 1.21 0 2.43 0.61 1.21 -0.61 1.21 0.61 4.85 1.82 -2.43 2.42 -0.6 0 0.6 1.21 -0.6 1.21 1.21 1.21 -1.82 1.82 -1.21 0.61 -0.6 1.21 -1.82 -1.21 -0.61 0 -0.6 0.6 0 1.82 -1.82 1.21 -4.24 4.24 -2.42 1.82 1.21 3.03 1.21 0 0.61 1.82 0 2.42 1.21 4.24 -0.61 1.82 -1.21 1.21 -0.61 0.61 1.22 4.84 3.63 5.46 -1.82 1.21 -1.21 -1.82 -15.75 1.82 -1.21 -1.21 0.6 -1.22 -0.6 -0.6 -0.61 0 -0.6 1.82 -0.61 3.02 -1.82 1.21 -1.81 1.22 -0.61 1.21 0 2.42 0.61 1.21 -0.61 1.82 -0.61 1.21 -0.6 0.61 -0.61 1.82 0 1.81 2.43 1.21 3.63 1.22 0 0.6 0.61 2.43 -0.61 1.21 0 1.21 -1.21 0.6 0 1.22 -1.21 0.6 -0.61 1.21 -1.82 1.21 -0.6 2.43 0.6 1.21 1.22 0.61 0 1.81 -0.61 0.61 0.61 1.82 0.6 -0.61 0.61 2.42 0 0.61 1.21 0 0.61 -0.61 0.6 0.61 0.61 -1.21 1.21 0 0.6 0.6 2.43 0 0 2.43 -1.21 0 -0.61 1.81 -0.61 0.61 -0.6 1.21 0.6 0.61 -0.6 0.6 -0.61 3.03 0.61 2.42 1.82 2.43 1.21 0 3.63 2.42 4.24 2.42 2.43 1.82 0 0.61 0.6 0 0 -1.21 5.45 -1.22 5.46 -4.84 0.6 1.21 0.61 3.03 0 0.6 1.21 0.61 -0.61 0.61 1.82 1.21 0.61 0.61 -0.61 3.02 1.21 0 0 0.61 1.82 0.6 0 0.61 -0.6 0.61 0 1.21 -1.82 1.21 0 1.82 1.21 0 0 1.21 0.61 0 0.6 1.21 -0.6 0 1.21 0.61 2.42 0 1.21 -0.61 0.61 -0.61 1.82 1.22 -0.61 4.84 0 1.21 1.21 0.61 0 5.45 5.45 1.82 2.43 2.42 1.21 0 0 -0.6 0.6 0 1.82 1.21 -0.61 0.6 0.61 1.22 2.42 -0.61 0.61 1.82 0.61 0 0 2.42 -0.61 1.21 1.21 0.61 2.42 1.81 -1.81 1.82 3.03 1.82 1.81 1.82 1.21 0.6 1.22 1.21 0.6 -0.6 1.21 1.21 0.61 0.61 3.63 3.63 1.82 0.61 0.61 0.6 -3.03 2.43 1.81 1.21 1.82 3.03 0.61 0.6 3.63 0 0.61 -0.6 1.21 -7.88 2.43 0 4.23 1.82 -3.02 4.85 -1.82 3.02 -0.61 1.22 2.43 1.81 -0.61 1.22 0 0.6 -3.64 0 -1.81 0.61 0.6 1.21 -1.81 0.6 -2.43 1.22 -1.82 1.81 -3.02 2.43 -3.03 1.81 -2.43 0.61 -3.63 1.21 -8.48 4.24 -1.82 3.03 -1.21 2.42 -3.64 10.3 -1.21 1.82 -1.81 1.21 -1.82 0.61 -1.21 0.6 -3.64 -0.6 -1.21 0 -3.64 -0.61 -2.42 -0.6 -4.24 -1.21 -4.84 0 -4.25 1.21 -4.24 0.6 -2.42 -0.6 -2.42 -1.21 -3.03 -1.82 -2.42 -2.43 -1.22 -1.81 -1.81 -1.82 -1.22 -2.43 -1.81 -4.23 -0.61 -1.22 -3.03 -4.24 -1.21 -0.6 -1.82 -1.21 -1.21 -0.61 -4.24 0.61 -1.82 -0.61 -2.42 -0.61 -1.82 -1.21 -1.82 -0.6 -1.21 -1.22 -0.6 -1.81 -3.64 -9.09 -1.21 -2.42 -4.84 -6.06 -3.03 -3.03 -1.82 0 -1.82 -0.6 -1.82 0 -1.81 -1.22 -7.27 -6.66 -1.21 0.61 -0.61 1.81 -1.21 0 0 1.21 -0.61 0 -0.6 0.61 -0.61 1.82 0 0.6 1.21 1.22 -1.82 3.02 4.25 1.21 -1.82 3.03 -4.85 0 0.61 0 -0.61 -0.6 -0.6 0 -1.21 2.42 -1.82 0 -3.03 -1.21 0.6 -0.61 -1.21 -1.21 -4.24 4.85 1.21 1.21 3.03 1.21 1.82 1.21 1.82 2.43 -3.03 2.42 -1.21 1.21 0 0.61 -1.82 0 0.61 0.6 -0.61 0.61 -0.61 -0.61 -0.6 0.61 -2.43 0.6 -0.6 -1.21 -1.21 0.61 -3.64 3.63 -1.82 -1.21 -1.81 5.45 -2.43 -0.6 0 1.21 -0.6 0 0 1.82 -1.21 0 0 1.21 -1.22 0 0.61 0.61 -3.63 1.21 -0.61 -1.82 0 -3.03 -0.61 -0.61 0.61 -1.21 0 -0.6 -0.61 0 0 1.21 -1.21 -0.61 -0.6 0.61 -1.21 -2.42 -3.03 0 0.6 -0.61 -1.82 -1.21 0 -0.61 -4.24 -1.82 -0.6 0 -3.64 -0.6 -0.6 0.6 1.81 1.22 -2.42 5.45 -6.06 -0.61 0 1.21 -1.21 -0.6 -1.21 1.21 -4.85 4.24 -4.84 -1.21 1.21 -3.03 1.21 -1.82 0.61 -1.81 1.81 -1.22 -0.6 -1.21 0.6 -0.6 -1.21 -3.03 3.03 -3.03 1.21 -1.82 0.61 -0.6 -1.82 -2.43 0 -3.03 -1.21 0.61 -0.61 -0.61 1.21 -1.81 -0.6 -1.82 -1.82 -1.82 -1.21 0 0 -0.61 -1.82 -3.02 -1.21 -1.21 -0.61 -1.22 -1.81 0 0 -0.6 -0.61 -0.61 -0.6 -0.61 0 1.82 -0.61 1.22 1.21 0.6 -1.21 0 -1.21 -0.6 0 -0.61 -0.61 0 -0.6 1.21 -1.82 1.82 0 1.21 -1.21 0.6 -0.61 0 -6.66 6.67 -1.21 -0.61 -0.61 -0.6 0 -1.21 -1.21 1.21 0 3.03 -2.42 0 -0.61 1.21 0 1.21 -0.6 0.61 1.21 2.42 1.21 1.21 0 1.82 -0.61 0 -0.6 0.6 -0.61 -1.21 -1.21 -1.82 0 -0.6 -1.21 -1.21 -10.3 -13.33 -12.12 -10.3 -3.03 -0.6 0 -1.82 -0.6 -2.43 -1.21 0.61 0 -1.82 -1.82 0 0 -5.45 -1.21 0 0.6 -1.21 0.61 -3.03 0 -3.64 0.61 -3.02 0 -0.61 0.6 -1.21 0 -3.64 -1.21 0.61 -1.82 0 -1.82 -0.61 -5.45 1.82 1.21 -6.66 -1.81 0 0 -1.82 -1.22 0 -5.45 -3.03 -2.42 -2.42 2.42 -9.09 1.21 -3.03 5.46 3.03 -1.82 -5.45 -1.82 0 0.61 -1.21 -0.61 -1.21 -1.21 -0.61 -1.21 -1.21 0.6 -1.22 -2.42 -8.48 0.61 0 0 -1.21 1.81 0 0.61 -1.21 0.61 0.61 1.81 1.81 0.61 0 1.21 1.22 0.61 0 1.21 0.6 0.6 0.61 0.61 0 0.61 0.6 1.21 0.61 0.6 0 0.61 0.61 0.6 0 0 0.6 1.82 1.21 1.21 0.61 1.22 1.21 1.81 0.6 1.21 0 1.82 0.61 0.61 0.61 1.21 0 2.42 0.6 4.24 -3.63 2.43 -5.45 0.6 -5.46 0 -0.6 3.64 1.21 0.6 0.61 3.64 0.6 1.21 0 5.45 1.21 1.82 1.21 3.03 0 4.24 0.61 4.84 0.61 4.85 -0.61 4.24 0.61 7.27 0 4.24 0.6 0 -1.82 -1.21 -2.42 -5.45 0 -0.61 -0.6 -0.6 0 0 0.6 -0.61 -0.6 -9.69 0 -4.85 -0.61 -1.82 0 -6.05 -1.82 -3.64 0 -1.21 -0.6 -10.91 -2.43 -3.63 -1.21 -2.42 -0.6 -1.22 -0.61 -1.81 0 -9.09 -3.03 -3.03 -1.21 -1.82 -0.61 -2.42 -0.6 -0.6 -0.61 -1.22 0 -0.6 -0.6 -1.21 0.6 -0.61 -0.6 -1.21 -0.61 -0.61 -0.61 -0.6 0.61 -1.21 -0.61 -1.22 -0.6 -5.45 0 -0.6 -0.61 -4.24 0 -3.03 -0.6 -2.43 -0.61 -2.42 0zm-678.5 -336.83l0 -4.84 9.09 -9.09 5.45 -1.82 10.9 3.03 -3.03 3.03 -4.24 -0.6 -10.3 10.9 -5.45 2.42 -2.42 -3.03zm38.77 29.69l-1.82 -3.63 1.22 -3.64 0 -4.85 3.63 -3.63 3.64 0 0.6 3.03 6.67 4.24 0.6 3.63 -4.24 4.24 -6.06 2.43 -4.24 -1.82z"/>
  <path class="fil0 str0" d="M1377.51 2107.97c2.82,-5.67 5.52,13.49 0,2.44l0 -2.44zm-246.57 -262.31c1.19,0 7.01,0.61 7.28,0.61 0,3.16 -9.91,9.95 -7.28,-0.61zm600.34 -121.76c4.07,0 0.27,1.8 4.87,3.62 -5.92,14.78 -5.33,-3.14 -4.87,-3.62zm-5.45 -9.69c5.74,0 2.94,-4.16 6.06,-7.28 11.27,15.77 -7.84,18.04 -6.06,7.28zm181.15 -37.58c-10.2,-5.08 10.9,-27.11 10.9,-4.23 -2.43,-0.61 -9.76,1.97 -10.9,4.23zm-768.16 128.43c0,-7.3 32.3,-8.17 23.61,4.85 -2.97,0 -24.82,27.35 -24.82,-1.8 0.51,-1.05 0.68,-2 1.21,-3.05zm258.67 -60.57c-1.22,0 67.05,6.67 22.41,6.67 -4.4,-2.22 -17.72,-1.95 -22.41,-6.67zm388.33 23.02c4.14,-12.44 52.55,-32.56 21.81,-1.8 -2,7.96 -19.5,6.42 -21.81,1.8zm-75.74 -58.75c0.61,1.8 -63.47,0.05 -60.57,-11.51 19,-12.68 44.05,1.58 60.57,11.51zm-490.7 65.42c51.02,-17.04 44.57,7.88 -12.73,7.88 -0.58,0.59 -105.45,13.95 -39.96,-2.43 17.7,-2.21 35.17,-3.87 52.69,-5.45zm368.94 -72.09c84.28,27.99 1.87,0.56 -25.43,27.87 -4.99,-19.91 -5.99,-27.87 25.43,-27.87zm-103 17.57c73.48,-3.06 49.07,25.43 16.38,9.08 -44.56,44.76 -80.22,-7.16 -16.38,-9.08zm-134.46 24.83c99.93,0 -54.55,18.18 -55.74,19.39 0,0.61 -16.28,-19.39 55.74,-19.39zm-278.09 81.19c20.88,-8.96 56.71,34.07 10.91,18.76 -48.78,13.97 22.26,41.74 -16.36,22.42 -12.49,25.07 -65.47,-30.28 -18.76,-30.28 8.54,-3.16 15.86,-7.79 24.21,-10.9zm989.89 41.79c1.34,0 -3.26,-7.4 -7.27,0.6 3.14,1.56 7.27,3.41 7.27,-0.6z"/>
  <path class="fil0 str0" d="M3135.55 3583.72c-19.37,14.53 -61.06,33.98 -18.79,55.13 -23.56,23.55 -40.38,-17.16 -79.36,21.8 -23.98,-14.41 -43.93,-47.75 -81.17,-29.08 31.83,63.54 -83.38,93.29 -96.94,93.29 -36.31,72.81 -61.74,16.33 -134.49,89.05 -5.87,2.94 -17.99,-43.42 -43.01,-30.89 -15.6,0 12.03,64.62 -16.35,7.89 -2.75,2.72 -49.99,13.63 -71.48,35.12 0,58.7 42.66,2.29 36.34,49.67 -44.96,44.95 -172.02,-86.01 -80.56,-86.01 10.22,10.27 14.07,-24.14 4.23,-33.93 15.75,-31.49 -37.4,-60.33 -9.68,-67.24 28.79,-28.82 -16.75,-58.12 41.18,-38.77 16.35,-24.53 -38.04,-62.18 -61.8,-50.28 0,-12.95 -68.56,-23.03 -105.41,-23.03 0,-56.61 29.7,-107.45 29.7,-140.55 36.46,-36.6 -9.54,-64.27 -49.68,-37.55 -0.6,-0.61 16.85,-76.62 -21.19,-57.56 0,-89.34 -55.13,8.3 -55.13,-93.89 -15.53,-15.51 14.63,-63.62 -23.63,-63.62 -1.49,1.48 20.51,-33.32 -15.75,-33.32 0,5.18 -28.55,1.34 -22.41,-10.91 -25.87,0 -41.21,13.76 -41.21,-36.94 -3.48,-2.9 47.32,22.66 25.46,-21.2 -2,-1.31 25.9,-1.36 -1.83,-29.08 0,-1.22 -30.3,-22.42 -30.9,-22.42 -20.38,-40.64 124.26,-94.57 64.22,-145.39 9.96,-28.45 42.01,-36.9 -6.67,-46.66 -13.28,-8.83 -19.37,1.41 -19.37,10.32 -76.91,38.43 -10.98,72.09 -137.53,72.09 -99.76,41.54 28.74,-167.61 -120.55,-90.27 0,1.22 -50.13,-3.63 -52.71,16.96 0,43.18 -34.9,16.12 -47.85,29.09 -4.75,0 -30.16,-16.67 -36.97,-12.12 -24.92,24.92 73.91,87.23 73.31,87.83 -2.68,5.36 9.56,140.8 15.16,143.57 39.35,0 -51.72,95.5 -86.64,60.58 -47.27,0 -65.21,44.83 -133.89,44.83 -9.9,-9.86 -97.52,62.28 -97.52,-18.16 9.81,-9.83 53.91,-24.85 66.64,-24.85 -3.48,-51.98 1.53,-23.65 10.29,-41.18 -11.1,-22.31 -89.56,-2.84 -57.56,-50.89 -4.04,-4.06 24.41,-47.6 12.73,-56.95 -24.24,-8.1 30.28,-17.57 30.28,-20 -32.98,0 -4.63,-61.19 -62.99,-61.19 -75.2,36.1 -95.4,-105.31 -133.88,-86.01 -30.13,0 -5.4,62.94 -30.3,87.84 -53.59,10.68 -83.65,63.62 -132.06,73.3 -18.54,23.68 -211.52,50.87 -137.53,-50.89 -0.61,-0.6 25.55,-61.79 -7.86,-61.79 -13.58,-13.51 -10.25,-46.61 -23.03,-59.36 -31.83,0 10.37,40.52 -67.85,13.31 -16.65,2.1 -103.48,-16.64 -79.97,-63.59 -21.54,-52.94 52.64,-17.65 21.8,-48.48 -22.44,-20.2 -2.53,-15.68 -7.86,-36.95 -26.04,-34.73 72.67,-22.41 87.23,-24.85 22.05,3.17 22.8,6.67 46.65,6.67 86.5,34.59 39.92,-132.71 83.6,-199.91 65.52,-99.61 47.27,-150.77 47.27,-244.13 39.52,-65.88 -15.11,-169.9 107.82,-108.45 2.06,1.05 6.06,49.09 4.84,48.48 -19.11,-38.21 5.45,-79.97 -64.2,-79.97 -54.11,-18.06 -132.09,20.95 -132.09,-59.36 -11.07,-60.85 28.94,-98.79 36.36,-128.44 0.61,0 10.79,34.13 19.38,21.2 -13.9,9.25 8.54,-23.63 12.12,-23.63 0.61,-0.61 -11.44,-13.87 -19.98,-22.41 0,-17.72 58.8,-87.84 84.21,-87.84 4.45,-0.56 12.6,-1.78 16.35,-3.65 10.69,-21.32 106.6,-0.61 122.37,7.28 12.8,-12.8 114.88,-26.65 135.1,-26.65 0,-1.83 3.02,0 3.02,-1.83 20.49,0 149.26,-19.74 121.15,22.42 1.32,6.49 6.06,23.8 6.06,32.71 35.24,0 116.12,136.07 17.57,129.04 -10.19,-5.09 -12.99,44.22 32.11,44.22 56.78,56.78 90.87,64.1 90.87,-46.63 -22.97,-23.1 -74.11,7.15 -30.88,-73.92 29.62,-32.59 124.58,31.59 154.47,51.5 3.94,19.74 -19.01,20.25 -30.3,40.57 -12.95,20.35 -6.5,60.02 -5.45,83.02 10.56,105.41 -10.83,-74.99 40.59,-100.56 13.97,70.01 75.28,-39.38 29.7,-54.55 37.11,-61.91 -63.01,14.53 -63.01,-62.37 -26,-51.87 54.61,-213.86 104.21,-213.86 0,65.76 184.97,70.46 205.36,29.67 7.28,0 57.05,-4.72 61.19,-0.59 98.15,0 126.53,225.69 223.54,258.06 6.09,3.04 14.65,14.11 21.2,18.79 61.84,-46.37 48.65,139.74 102.97,85.42 31.76,0 4.29,28.01 15.77,30.89 19.35,-16.92 15.34,-6.67 30.89,-6.67 0,15.79 33.93,-25.44 35.75,-28.45 -5.65,-5.65 87.86,71.45 103.58,47.85 27.68,-78.42 161.48,65.71 232.62,23.02 28.8,0 30.45,46.9 67.25,51.5 29.79,0 67.2,-64.72 95.72,1.8 0,51.52 111.22,116.28 90.27,130.25 23.22,23.22 53.96,31.47 80.58,79.37 26.82,26.85 45.42,-41.88 92.07,9.69 89.95,35.97 8.79,12.73 -2.43,79.97 14.58,34.41 -96.31,57.8 -96.31,73.28 -41.57,18.5 -124.05,-69.92 -171.43,1.22 -15.75,15.67 -16.53,21.81 -39.38,21.81 0,-0.61 -24.24,1.21 -23.02,3.04 -132.45,-26.55 13.16,165.69 32.71,204.75 0,-0.61 42.51,-26.92 19.37,19.4 -9.01,4.5 -9.69,27.26 -3.02,40.57 7.59,11.39 40.94,45.83 25.43,43.03 -81.41,0 61.12,104.26 24.85,131.45 0,1.99 -18.79,-2.24 -18.79,1.82 -8.76,4.38 57.81,104.49 32.11,108.43 -17.31,4.01 -41.94,41.2 -10.91,41.2 20.37,-10.22 10.1,38.16 -10.29,38.16 0,-1.19 -1.8,0.61 -0.61,0.61 -8.79,13.19 -19.33,18.79 -30.28,18.79 0,-0.61 21.27,57.44 -41.2,41.79 -40.01,8.01 -129.65,4.7 -129.65,39.38 -9.78,4.87 -13.82,10.39 -23,1.22 -38.99,0 12.19,41.13 13.31,49.06 41.62,-20.86 -36.53,39.38 12.73,39.38 0,32.59 -56.85,72.79 -30.3,99.35 -14.67,14.62 62.26,77.76 45.44,111.46 1.8,5.43 14.02,23.08 18.79,25.46z"/>
  <path class="fil1 str0" d="M2454.62 3575.84c-5.97,11.92 -83.04,40.08 -38.16,49.07 -43.74,43.53 -26.86,67.11 -83,95.11 -1.35,1.35 -2.68,6.4 -1.21,7.87 0,14.42 -92.28,52.3 -71.48,-4.84 15.78,-34.76 -127.32,-48.04 -93.3,19.99 -6.93,20.76 52.34,53.92 -14.54,53.92 -22.14,14.76 -128.43,-4.45 -128.43,43.01 -5.56,5.56 -71.83,45.71 -43.01,63 22.67,45.25 51.63,-28.49 85.42,5.45 7.23,10.84 20.95,105.52 -13.33,96.93 -21.08,42.11 18.72,26.86 -16.96,38.77 -53.55,26.84 -100.14,-26.39 -88.45,43.62 -18.51,12.33 -1.97,11.32 7.27,32.11 -40.22,13.42 -43.36,83.76 -51.49,87.84 -34.37,0 -32.36,52.03 -59.37,43.01 -11.87,-2.95 -72.7,-23.29 -72.7,22.42 -64.05,32.02 -30.18,56.75 -36.95,70.27 0,5.53 16.56,84.27 -27.26,44.83 -33.18,0 -14.58,14.38 -32.72,-21.81 -42.16,-42.16 -36.35,-57.11 -36.35,-101.77 -15.72,-15.72 -32.92,10.83 -46.04,-28.48 -66.21,0 17.33,-60.58 -47.86,-60.58 -45.76,27.44 -18.78,16.16 -18.78,37.56 -9.82,19.66 9.81,62.48 -16.96,42.41 -0.6,-1.82 -39.72,26.95 -36.95,27.87 21.48,14.34 -5.35,53.09 -31.5,39.98 -8.71,0 -10.91,9.61 -10.91,18.17 0.61,0 -31.09,6.75 -63.61,23.02 -53.57,0 -69.67,-4.82 -69.67,48.47 -8.18,24.63 -53.71,29.08 -81.17,29.08 0,-48.14 -15.71,26.59 -53.32,7.87 -0.87,0.88 -3.77,14.41 -6.05,12.12 0,15.77 -18.05,8.87 -21.21,-0.61 0,-27.37 -52.94,55.2 -67.24,26.66 -28.25,28.25 -38.26,31.27 -26.05,67.85 -13.54,40.55 -38.3,20.35 -57.55,-8.48 -45.65,11.44 -21.2,43.79 -21.2,85.42 32.03,44.87 -42.41,38.77 -42.41,38.16 -33.08,-39.7 -28.69,26.93 -38.77,-23.63 1.21,0 -6.01,-4.72 -10.91,-14.53 -21.11,7.04 -32.41,14.23 -49.67,19.99 0,7.75 0.23,1.81 -5.45,1.81 -38.96,58.49 -19.67,-33.04 -44.83,-7.87 -24.74,-49.36 -9.84,12.23 -3.03,32.71 0.6,1.21 -38.36,-25.4 -33.32,-60.58 38.86,-38.88 -24.02,-57.16 -1.82,-79.36 4.49,-2.99 -38.86,-15.44 -42.41,-17.57 -37.79,45.37 -67.29,-100.27 -12.11,-72.69 22.35,-44.7 21.41,-20.1 -10.91,-39.99 -29.24,14.63 -28.17,-87.23 -96.92,-87.23 0,-5.21 2.78,-53.92 -16.97,-53.92 -8.42,-8.46 -15.33,-11.27 -5.45,-21.2 30.76,30.75 5.96,-58.03 50.28,-28.47 11.45,-54.45 22.88,-61.02 -26.05,-78.15 -4.07,-32.53 22.54,-48.56 -25.44,-40.59 -2.65,0 -5.7,-6.06 -6.66,-8.48 -55.41,15.81 -42.14,-51.16 -23.63,-69.67 51.35,64.27 49.98,-57.55 121.77,-57.55 0,-4.75 15.29,-5.45 19.38,-5.45 23.32,-23.32 -32.16,-9.07 15.15,-32.72 -17.48,-16.13 -33.72,10.91 -47.86,10.91 0,0.6 -2.43,-46.65 -3.64,-49.68 -11.76,-32.36 87.33,-99.55 81.79,-123.58 -5.92,-28.08 4.84,-43.78 4.84,-79.97 17.42,-26.09 -39.19,-90.15 -48.46,-112.68 -31.99,-31.99 17.31,-44.67 -10.91,-58.76 -14.5,-2.42 -42,-12.32 -32.71,-30.9 0,-27.5 15.98,-22.35 -23.02,-41.8 -38.02,0 1.21,-15.9 1.21,-32.71 2.05,-4.09 -3.2,-22.19 -13.33,-30.29 -7.59,-1.26 -1.08,-26.66 9.09,-19.39 35.33,-17.66 64.71,-20.95 105.41,-0.6 0,-52.13 -50.14,-33.37 -4.24,-56.34 23.61,23.72 47.94,39.38 78.15,39.38 0,6.21 78.21,62.99 50.28,7.26 -26.22,-17.5 20.6,0.61 20.6,-0.6 3.03,-1.21 67.24,-5.59 67.24,-15.75 6.38,2.12 74.22,-39.04 76.33,-19.99 2.4,1.19 4.17,-1.5 3.03,3.02 31.64,31.64 132.91,-116.31 -3.03,-116.31 1.18,-21.32 31.57,-47.25 36.96,-47.25 3.37,1.68 4.42,-16.52 4.84,-19.39 88.12,4.99 46.16,-50.28 104.2,-50.28 3.86,-4.63 5.51,-9.45 9.09,-13.93 30,-70.04 220.16,-33 234.44,-90.27 1.22,0.61 89.66,-49.67 88.45,-49.67 0,0.6 36.53,-38.48 2.43,-52.1 22.42,0 2.77,-39.46 46.64,-24.84 29.45,0 22.82,52.45 37.56,55.73 21.46,12.88 36.7,25 61.19,29.08 46.66,-22.39 55.73,14.22 55.73,30.9 50.92,50.92 -43.52,7.36 3.64,54.52 -16.68,16.6 -47.38,71.83 -12.12,83.6 15.36,0 18.18,5.76 36.35,1.21 7.35,3.68 -4.02,52.63 -19.99,51.5 -20.85,20.85 -66.88,13.69 -29.68,50.88 -15.14,35.31 48.22,0.76 55.73,-4.24 8.29,-2.77 58.16,7 58.16,-6.06 26.18,-6.52 30.6,8.39 47.85,-26.04 -2.07,-2.08 24.77,-19.32 25.45,-20 -3.86,-7.71 16.96,-3.27 16.96,6.06 22.36,0 58.16,25.24 58.16,-9.69 10.35,-20.7 72.8,-26.55 50.88,-48.47 -38.33,19.21 -13.85,-115.6 -27.26,-142.36 10.58,-10.57 -73.56,-47.93 -63,-50.28 0,-38.82 -30.34,-36.35 15.75,-36.35 36.98,36.98 62.77,-47.86 90.87,-47.86 26.35,12.35 86.63,-24.38 86.63,-3.03 17.53,17.58 2.01,80.77 10.91,89.66 16.39,49.36 126.18,4.06 142.36,-12.11 1.21,0 23.73,-36.68 36.95,-47.26 -0.59,-0.59 1.41,-21.56 10.91,-12.11 9.46,-9.42 58.6,15.78 19.99,35.13 -5.68,16.24 24.53,60.58 -4.85,60.58 0,52.46 -58.15,23.9 -58.15,86.03 -14.99,14.99 -7.27,3.25 -7.27,21.81 65.62,0 36.95,39.52 36.95,69.66 -28.51,0 -23.63,-24 -23.63,0 30.44,15.22 -15.08,45.65 34.53,29.08 2.43,0 59.15,17.8 44.84,32.11 -23.01,0 8.48,24.81 21.2,37.56 2.38,0 0,2.27 0,0.61 -28.52,0 18.32,70.34 -10.3,75.12 9.56,38.37 76.45,-19.5 50.28,32.71 -1.02,-0.51 45.7,35.94 36.35,73.3 0,15.38 86.14,-15.86 50.89,19.39 0,11.9 11.68,59.97 -12.12,59.97 -7.54,30.14 -25.35,19.02 -5.45,58.77 0,58.08 -34.97,28.5 21.2,47.25z"/>
  <path class="fil0 str0" d="M2779.33 4565.11c-3.5,1.76 2.17,19.82 -4.24,23.03 0,39.81 -87.06,88.53 -117.53,73.3 0,-16.47 -47.72,-29.38 -34.53,3.63 -41.1,27.44 21.68,74.36 -44.22,107.23 -15.34,15.34 -37.82,15.2 -7.87,33.93 -12.29,32.76 -107.89,-13.38 -94.51,13.32 2.32,1.55 27.24,125.99 -9.09,111.47 -67.47,16.89 -46.86,-41.19 -113.28,-41.19 -9.32,-2.34 -53.92,-7.26 -53.92,4.84 12.43,6.23 -38.86,61.2 -18.78,26.05 5.96,0 3.26,-10.9 -7.27,-10.9 -45.91,-32.16 -117.28,61.79 -70.88,61.79 7.59,2.17 35.61,58.09 5.45,43.01 -9.11,7.98 7.66,80.57 3.64,80.57 18.82,37.56 2.4,44.79 14.54,63.01 3.24,0.64 3.73,0.86 6.66,-0.61 12.71,-25.47 6.06,6.28 6.06,17.57 6.74,26.91 47.91,9.79 16.96,40.59 -14.91,7.47 36.96,12.11 12.73,36.35 -3.93,31.39 -36.68,17.03 -20.6,65.42 0,15.95 -19.99,17.8 -19.99,41.2 30.69,0 15.49,58.93 7.27,26.05 -3.87,-5.81 -7.3,9.98 0.6,13.93 0,16.77 41.77,27.28 13.93,41.2 -6.58,-6.62 -8.24,-18.18 -24.23,-18.18 -2.73,8.18 -14.7,17.47 -11.51,25.45 -15.22,15.22 -52.7,-30.11 -52.7,12.72 1.21,0.6 -14.42,5.01 -3.64,21.2 6.87,13.73 -10.9,4.48 -10.9,11.51 -8.8,26.36 -103.9,69.01 -51.5,16.36 6.58,-26.28 -4.12,-22.03 7.88,-46.04 0,-0.61 10.75,12 27.26,-1.22 3.61,-3.61 2.84,-11.3 1.21,-14.53 0,-24.4 -46.04,22.96 -46.04,-7.27 17.39,-17.39 -54.23,-6.47 -57.55,-23.02 -1.71,0.85 -8.08,-3.43 -4.85,-6.67 0,-8.09 -25.49,-40.74 -4.24,-46.04 4.73,-18.9 -21.87,-5.93 -12.11,-25.44 11.03,5.5 -0.16,15.4 10.9,-1.22 -12.15,-12.09 -87.89,30.3 -51.49,24.24 21.38,111.09 -69.06,46.39 -69.06,12.72 -25.72,-18.37 -48.37,-6.86 -59.37,-61.79 -17.5,-78.73 61.79,-44.4 61.79,-100.57 -11.92,-17.89 -23.22,6.92 -45.43,-37.56 -9.58,-15.95 -30.7,-76.4 -22.42,-89.66 8.81,-70.37 -78.82,-139.29 -142.36,-93.89 -32.02,12 -133.28,64.17 -133.28,0.6 -27.8,-48.64 -58.21,-25.33 -29.08,-69.06 22.27,22.17 24.82,-61.83 43.01,-25.44 22.74,-15.18 27.87,32.03 27.87,-2.43 -8.2,0 2.15,-22.08 1.82,-22.41 -63.42,0 22.53,-91.37 40.59,-73.3 3.27,6.55 6.07,9.89 14.54,12.72 29.89,0 1.17,-39.52 3.02,-39.98 18.68,-18.72 64,21.39 50.89,-30.9 -29.69,-29.7 -16.87,-65.14 -54.52,-74.51 -1.56,-1.56 3.63,-10.55 3.63,-15.15 -16.03,0 -17.47,6.93 -22.41,-7.88 -16.73,11.17 17.87,-46.04 11.51,-46.04 -28.55,-28.55 5.05,-46.93 17.57,-72.09 -3.86,-3.85 13.93,-13.39 13.93,-5.45 0.89,0 0.94,0.61 1.82,0.61 25.98,26.09 53.31,7.83 53.31,-40.59 -20.74,0 5.35,-39.88 -19.39,-46.04 0,-33.31 44.58,-68.11 23.02,-89.66 -1.64,-0.83 -8.24,-18.78 -10.9,-18.78 0,-13.26 90.27,-97.42 90.27,-85.42 22.62,45.29 88.44,-34.02 88.44,-49.68 4.85,-9.69 24.52,-63 36.35,-63 0,-0.39 24.23,-8.8 7.88,-16.96 -2.54,-15.2 -24.88,-7.06 -1.82,-22.42 -6.21,-37.23 -7.43,-43.28 53.92,-38.16 17.61,5.86 69.23,-13.33 44.82,-13.33 -10.02,-10.03 30.99,-67.44 37.57,-80.57 -30.15,0 -9.84,-88.88 -46.65,-52.1 -28.39,9.47 -41.1,29.81 -56.34,-0.61 -30.14,-18.09 80.35,-117.93 132.67,-102.99 12.03,-4.8 11.41,15.22 38.77,-3.02 68.16,0 7.27,-33.89 17.57,-44.23 1.27,-3.81 -7.98,-19.31 -14.54,-24.23 -4.73,-16.58 116.68,-75.74 103.59,15.75 4.04,36.34 59.29,-15.83 71.49,-3.63 6.34,-53.97 55.13,-26.25 55.13,-79.97 39.25,-13.1 14.25,-55.07 23.02,-58.76 29.48,2.46 72.09,-59.15 72.09,-12.12 23.82,15.87 21.52,-9.23 33.92,-3.03 9.2,18.43 18.14,7.99 23.63,9.09 32.75,-8.21 59.4,73.94 27.86,42.4 -26.37,13.22 11.3,14.08 -15.14,27.27 0,-20.87 -36.69,64.21 7.87,64.21 4.03,2.68 -11.03,34.4 3.64,49.07 0.61,0 -6.66,6.53 -6.66,12.12 -51.91,0 -45.48,66.03 -16.36,66.03 0,5.9 11.64,-2.9 19.99,5.45 -10.37,10.37 21.98,0.78 41.8,20.6 39.55,0 28.06,-29.21 28.47,-29.08 -19.12,19.13 -55.82,-35.74 -10.29,-35.74 24.05,-16.02 24.23,-8.49 24.23,-29.68 22.19,-8.89 56.66,55.05 33.32,8.48 -3.02,0 -2.43,-3.45 -2.43,-4.85 7.56,-7.59 22.39,-4.88 17.57,-9.69 45.82,-7.65 4.88,111.47 66.04,111.47 6.3,4.19 13.93,9.08 19.38,5.45 25.61,0 -9.5,23.62 9.69,23.62 4.34,4.34 23,50.81 44.83,29.08 12.74,12.74 1.2,6.67 15.75,6.67 66.27,33.13 -5.28,56.63 21.21,82.99 -15.63,15.62 -10.06,-59.01 -49.07,-19.99 11.19,11.25 13.42,13.15 30.29,18.78 -6.7,6.7 -31.51,60.58 3.03,60.58 7.81,3.89 29.33,24.23 9.08,24.23 0,61.4 -93.29,-38.03 -93.29,38.17 2.48,4.97 8.93,16.81 10.3,18.17 0,14.34 7.3,3.39 11.51,9.69 0,3.42 -5.9,4.08 -7.88,6.06 -3.76,0 -58.26,-4.94 -52.1,1.21 0,32.65 16.97,-20.13 16.97,9.7 -8.06,8.05 -13.54,28.78 4.24,8.48 11.41,-11.41 35.13,22.41 35.74,23.02 0,13.74 -27.28,15.03 -19.99,36.95 15.52,0 -39.99,16.83 -39.99,51.5 7.34,4.39 -2.89,16.46 -8.48,10.9 -9.73,0 11.94,32.2 -12.72,58.16 -1.88,5.03 14.73,23.02 -7.87,23.02 -1.11,-1.11 -14.35,11.72 -7.88,18.17 0,4.54 2.09,7.31 0,11.51 0,17.3 31.04,19.29 47.86,6.67 -46.63,-55.98 100.62,-20.85 61.19,18.78 -26.04,-26.04 -17.28,70.06 -21.21,89.65z"/>
  <path class="fil1 str0" d="M1744.01 5904.55c0,-12.17 -61.79,-6.64 -61.79,-18.78 -20.72,0 -61.59,-48.54 -83.6,-37.56 -6.54,0 -14.97,-45.12 -29.68,-15.75 -8.06,4.03 -16.42,-9.6 -23.63,-2.43 -14.92,29.97 -37.41,-33.49 -61.19,-9.69 -7.99,11.99 -47.18,-1.36 -44.22,0.61 2.97,8.88 -44.1,5.06 -36.95,-16.36 -5.6,-11.16 -23.25,-12.67 -35.14,-9.69 -55.8,-11.18 -15.28,-79.97 -67.25,-79.97 -15.25,10.16 20.2,-26.55 -37.55,-7.27 -0.19,0.05 -26.05,28.47 -26.05,-5.45 0.65,-0.99 -36.4,-40.18 -16.97,-55.74 23.1,-34.59 59.37,-41.97 59.37,-92.08 -5.21,-1.74 4.37,-15.39 0,-17.56 -48.71,0 -48.15,-16.17 -69.67,-48.47 -42.15,-21.03 36.28,-21.27 5.46,-52.1 12.81,-12.81 18.63,-44.83 6.06,-44.83 -5.76,-5.75 -11.76,-42.89 -12.73,-42.4 -14.14,28.22 -30.64,0.78 -38.77,4.84 -20.49,-10.22 -0.01,-29.85 -35.14,-18.17 -20.11,0 -48.91,-47.41 -64.82,-31.5 -18.29,-4.58 -11.51,15.8 -11.51,-6.06 -2.27,2.27 -26.54,10.33 -24.23,-1.21 -6.22,-1.56 -12.12,16.35 -12.12,16.96 1.22,0.6 -38.01,4.69 -41.19,7.87 -17.49,24.51 -65.26,24.67 -96.32,55.74 -11.06,0 -4.29,-18.74 -27.87,-3.03 0,-15.24 -21.6,16.17 -21.81,15.75 -14.49,-2.41 -22.12,-30.2 -38.17,-18.18 -5.44,5.47 -21.93,7.15 -27.86,1.22 -6.88,-13.76 -19.99,-6.06 -19.39,-6.67 -4.47,-4.47 -61.53,-10.86 -50.28,-33.31 37.89,-18.96 32.23,-78.12 69.67,-100.57 32.75,-10.93 12.5,-59.61 32.11,-89.05 4.47,-8.93 -35.32,-28.29 -50.28,-13.33 -21.83,10.91 -19.86,-48.74 -55.74,-24.84 -7.36,0 -5.59,-22.61 -10.3,-29.68 -20.41,0 -63.19,-50.82 -43.62,-60.58 -4.76,-7.16 -23.62,-35.03 -23.62,-19.99 7.91,7.88 -20,-9.69 -6.06,-23.63 1.72,1.71 1.41,-1.21 -1.82,-1.21 -20.6,-8.24 -28.72,-96.53 -16.96,-102.38 1.6,-0.53 9.19,-33.39 16.96,-41.2 -16.13,0 -10.68,-0.82 -3.03,-8.48 -12.25,-24.46 37.07,-6.32 21.81,-26.65 0,-31.42 -12.81,-21.75 11.51,-41.2 0,-26.84 65.44,-10.96 50.28,-41.19 19.76,-9.9 -2.03,-23.63 28.48,-23.63 0,19.58 30.84,-4.24 50.28,-4.24 -3.07,-6.12 -15.29,-33.04 -15.15,-33.32 3.55,-1.78 -1.37,-6.66 -3.02,-6.66 12.33,-37.13 36.95,29.68 39.98,27.86 22.23,-11.14 72.33,-42.77 92.08,-23.02 0,59.35 17.05,-30.54 38.17,32.72 0,2.66 16.34,-12.12 20.59,-12.12 13.99,-9.31 46.91,-0.95 32.72,-15.14 -7.2,-4.8 -14.38,-20.78 -6.06,-29.08 5.18,-33.75 -31.68,-20.48 -4.85,-47.26 -4.63,-13.87 -17.56,-18.3 20.6,-27.86 22.54,33.76 53.92,46.57 53.92,1.21 10.84,-10.85 -22.41,-33.32 3.63,-33.32 0,1.82 26.09,-27.26 44.83,-27.26 3.42,-1.71 8.39,2.86 11.51,-1.82 34.85,-70.03 35.36,9.13 61.79,-27.87 -7.58,-7.58 11.73,-8.67 16.96,1.82 1.9,0.38 33.93,-24.59 33.93,-41.19 9.9,0 4.28,7.56 5.45,15.75 0,17.56 55.71,-4.24 66.03,-4.24 0,0.06 15.76,-4.84 15.76,-11.51 -2.77,0 -1.93,-15.76 6.66,-15.76 1.96,-17.66 -13.06,-46.35 16.96,-36.34 3.53,-3.53 24.18,6.12 32.72,-2.43 24.01,-6.01 36.42,-9.5 53.31,-23.02 19.53,24.43 20.93,-31.62 57.55,-16.96 0,-5.33 25.87,-23.73 10.9,-38.77 -13.85,0 -1.81,-7.27 8.48,-7.27 0,-22.22 41.8,-16.3 41.8,-27.26 1.21,-0.61 -6.31,-25.55 -3.63,-30.9 0,-27.8 -20.51,-19.09 22.41,-44.83 65.19,0 -18.35,60.58 47.86,60.58 7.17,21.49 85.81,38.19 44.83,79.36 -6.92,0 7.49,19.61 10.91,23.02 18.41,0 31.05,55.32 37.56,56.34 34.92,-43.62 34.71,46.81 36.34,50.89 15.57,15.57 -5.05,19.37 -0.6,26.05 25.26,15.15 -10.39,80.76 -24.23,59.98 -13.46,0 -17.62,-23.58 -29.69,-11.51 -3.97,0.79 -3.72,12.11 -9.09,12.11 -39.03,39.03 3.38,59.63 -18.17,81.18 0,8.62 -6.9,11.41 -14.54,26.65 0,5.07 22.78,5.89 10.3,12.12 30.74,10.26 47.25,16.12 47.25,59.97 28.42,0 40.46,61.19 3.03,61.19 3.97,-9.25 -13.33,-11.21 -13.33,-11.51 -28.9,0 -9.89,28.97 1.21,34.53 -24.29,8.11 -22.65,27.38 -38.76,-4.84 0,22.82 -85.34,34.61 -52.71,67.24 17.21,8.61 25.35,62.89 7.27,38.77 -0.83,-0.82 -26.35,-10.39 -31.5,-12.11 -13.61,0 -12.72,30.89 -12.72,32.71 1.21,0 -74.12,26.25 6.66,66.64 7.17,9.57 4.81,22.96 10.3,33.92 71.81,47.84 158.16,-113.06 237.47,-7.27 2.99,2.24 5.61,4.88 8.48,7.27 19.94,24.9 32.57,208.81 83.6,188.41 19.47,4.87 -16.68,42.66 -26.65,46.64 -86.63,17.36 11.71,88.94 -6.06,133.28 0,16.02 30.04,82.21 18.78,87.84 -25.09,8.34 59.28,18.27 23.02,54.53 -24.19,17.73 -23.87,22.83 1.21,10.29 11.46,-2.87 -5.53,33.51 -12.11,38.78 -7.53,6.27 -22.64,14.92 -11.51,26.04 52.09,26.05 -74.59,76.33 -32.71,76.33 3.59,8.39 -3.7,18.83 -10.91,23.63 -6.52,48.86 -40.41,179.5 -91.48,199.92z"/>
  <path class="fil0 str0" d="M2521.87 7124.03c-1.09,-3.26 -50.89,2.86 -50.89,-40.59 9.07,-18.14 -76.22,-31.39 -76.94,-32.11 -58.82,0 -59.17,-31.22 -95.11,-67.24 -13.18,-6.56 -151.69,-96.68 -99.35,-44.22 56.29,33.75 68.57,55.1 94.5,107.22 6.59,6.56 -31.46,-0.51 -19.38,11.51 -13.22,13.22 -44.92,-44.65 -64.22,-25.44 -43.61,-43.61 19.99,15.25 19.99,-9.69 -1.77,-5.35 -103.12,-74.05 -53.31,-24.24 1.37,2.75 -12.29,-3.38 -13.32,-5.45 -31.31,-15.69 -41.04,5.29 -7.88,16.36 27.83,5.57 -31.78,79.77 -67.25,26.65 -13.19,-9.9 -6.54,-22.89 3.04,-13.32 8.09,-4.06 -2.7,-14.12 -12.73,-9.09 0,-15.9 -24.36,-1.09 -12.72,-12.72 -24.47,-24.47 -13.92,-10.92 -33.92,9.09 57.9,19.24 -21.81,41.95 -21.81,-3.64 6.76,-16.9 -22.98,-3.68 6.06,-32.71 0,-25.58 -52.12,4.26 -33.93,-32.11 -24.67,-8.2 -10.19,-20.48 -20.6,7.27 0,20.37 -18.78,13.65 -18.78,-7.88 3.77,-15.04 -5.02,-20.95 -19.99,-14.54 -17.19,3.43 6.66,26.55 -32.11,18.78 -1.81,1.82 -71.85,32.57 -42.4,47.26 -19.17,19.25 -55.45,42.67 0,61.18 0.05,-0.03 10.17,7.54 21.2,10.3 -2.25,-15.74 28.71,12.16 19.39,-15.75 3.39,-1.7 50.45,-18.84 59.97,9.69 -11.88,35.58 -12.66,-10.57 -15.75,1.82 0,101.84 -36.98,-30.69 -75.73,33.93 -7.64,-7.68 2.1,26.04 0,26.04 -22.64,34 -117.23,-16.96 -126.61,-35.74 -57.13,0 -85.35,49.07 -150.84,49.07 -36.08,-18.01 -42.83,36.38 -56.34,-17.56 -36.31,-60.55 -109.49,83.59 -161.15,6.05 -1.81,-0.6 53,-10 21.21,-20.59 0,-6.22 11.25,-9.19 13.32,-13.33 -32.79,0 -49.49,37.83 -59.97,-4.24 -16.72,-33.36 -44.22,-45.28 -44.22,-86.63 11.38,-11.39 22.41,-15.53 22.41,-34.53 -15.68,-31.34 17.01,-166.44 41.8,-182.96 24.56,-49.11 -43.76,-66.48 -15.14,-123.58 0,-55.86 63,-112.48 73.9,-178.11 8.81,-11.75 24.2,-10.22 30.29,-22.41 4.88,-29.34 -6.44,-49.22 3.03,-82.39 39.18,-78.18 22.99,-152.36 93.9,-211.43 36.03,-36.03 63.02,-114.49 112.08,-114.49 23.65,-47.54 38.65,-123.07 91.47,-144.18 94.18,-77.8 55.14,-244.55 146.61,-275.04 21.22,-21.22 -43.28,-17.48 0,-52.1 3.12,-4.69 21.36,-39.42 9.08,-36.35 -64.37,32.19 60.68,-67.35 -17.57,-47.86 -7.86,-1.96 -20.31,-12.42 -6.66,-16.96 17.77,-8.89 -58.92,-131.63 16.36,-106.62 -1.55,3.11 26.54,27.33 30.89,43.01 44.95,59.93 60.51,-52.89 33.93,-48.46 -6.49,-16.23 55.73,-37.17 55.73,-18.78 -3.62,1.2 -3.03,-1.36 -3.03,-1.21 -0.42,0.43 14.01,141.36 74.52,80.57 3.06,1.53 -1.12,20.09 9.08,30.29 16.89,-16.87 58.43,-12.99 27.87,17.57 -20.73,0 -29.08,-24.69 -29.08,28.47 -11.56,23.08 -32.78,37.56 9.7,37.56 22.52,-16.9 57.58,-52.67 46.64,-63.61 0,-19.97 23.02,-35.75 44.83,-28.47 11.18,16.73 26.84,-13.27 30.29,-23.63 19.16,0 22.48,24.17 35.14,11.51 -68.94,-69.1 8.3,-37.56 70.27,-58.15 0,-12.76 30.01,-24.84 12.73,-36.35 20.38,-27.2 79.43,-12.89 84.2,-27.26 -8.95,-4.49 6.42,-77.17 -21.2,-58.77 6.39,38.28 -40.18,9.06 -4.24,-1.21 0,-6.6 -43.62,-2.71 -43.62,-11.51 5.22,-2.61 13.13,3.62 15.75,-4.24 -5.24,-31.43 30.5,-20.91 56.34,-38.17 18.75,0 11.1,33.05 31.5,2.43 24.7,-8.25 50.59,69.6 43.62,13.93 0,-11.53 52.74,-14.79 53.31,-13.93 0,18.25 -31.21,104.65 13.33,82.39 -3.91,-19.54 24.84,-44.57 24.84,-7.88 24.98,16.64 36.08,-49.49 58.76,-4.24 -0.61,0 1.87,7.65 6.06,13.94 -27.87,27.86 41.33,48.49 3.63,86.02 0,2.88 -13.32,32.71 -8.48,34.53 10.33,30.93 60.93,-70.29 40.59,-9.09 0,5.27 19.88,0.19 12.72,14.54 14.63,14.66 -27.53,72.41 29.69,53.31 34.7,34.62 50.11,-93.1 67.85,-39.98 -8.63,0 -14.04,24.3 5.45,14.54 17.3,0 -5.22,17.6 4.84,32.71 8.82,-3.52 0.97,22.61 -7.87,18.18 0,13 11.79,16.68 15.14,13.32 9.36,28.03 37.91,48.47 -3.02,48.47 -2.09,0.52 -2.11,24.5 -6.67,29.08 5.05,15.14 28.47,42.91 28.47,63 -45.74,0 -5.62,106.02 30.29,106.02 8.04,-16.03 48.72,41.85 9.09,33.92 0,14 -20.31,15.57 1.82,26.66 14.63,-7.32 9.53,50.28 44.83,50.28 21.44,-10.75 50.5,52.77 68.45,58.76 0,4.84 32.12,51.04 6.67,47.86 0,7.68 24.27,44.43 -4.24,55.13 0,12.63 33.19,27.68 -3.64,39.98 0,23.07 -4.89,57.95 26.66,68.46 6.07,48.5 22.72,16.4 -24.84,52.1 -13.52,-3.39 10.26,-15.79 -6.06,-32.11 -28.66,14.36 -15.71,66.72 -43.62,10.9 0,-10.79 -18.78,8.44 -18.78,-1.21 -24.19,-32.28 -34.3,25.37 -19.99,31.5 -1.97,15.83 50.36,33.13 15.76,41.8 0,18.81 6.03,55.03 10.29,67.85 -63.25,0 -48.24,61.19 -108.44,61.19 -4.64,-27.83 -31.97,-2.81 -41.8,0 -9.47,-1.89 -20.02,38.06 -49.07,67.24 0,3.36 83.66,125.37 66.04,160.54 8.03,56.16 52.3,89.97 26.05,142.37 14.72,36.83 -30.47,43.27 -9.7,84.81 2.29,6.86 -2.42,47.76 -2.42,50.28 -22.64,16.97 -6.47,22.07 17.57,58.16 0.6,1.81 -12.06,16.3 -23.63,6.66 -32.08,32.08 15.15,23.38 15.15,80.57 21.88,0 -4.15,60.16 -17.57,33.32 -4.09,2.05 -2.71,36.11 -11.51,27.26 0,-78.6 -58.3,1.07 -70.88,-11.51 -41.63,0 -63.48,-42.13 -78.76,3.64 -30.1,60.08 -91.86,23.58 -127.21,58.76zm-550.07 -115.1c-0.16,-1.24 25.44,-10.18 25.44,3.63 13.83,27.66 -51.03,5.46 -19.39,5.46l-1.81 -6.67 -4.24 -2.42zm313.2 4.84c0,10.24 -13.02,-0.6 -0.61,-0.6l0.61 0.6z"/>
  <path class="fil0 str0" d="M2521.87 7124.03c39.46,-39.28 88.74,2.94 133.88,-64.82 11.59,-23.14 17.32,-18.3 53.92,0 0,2.15 26.71,7.21 33.31,0.61 -4.89,-4.92 29.69,-40.98 29.69,-17.57 2.99,0 27.87,-6.37 27.87,18.17 -12.57,31.42 46.42,-29.3 29.07,-46.65 -6.36,0 -6.96,-33.32 -3.63,-33.32 0,-25.45 -54.83,-24.66 -16.96,-43.61 3.97,-7.95 29.24,-1.35 24.83,-14.54 3.5,-3.48 -4.57,-7.66 -5.45,-10.3 -36.4,-21.85 -9.69,-29.89 -9.69,-49.07 -2.4,-0.48 -4.28,-127.85 21.81,-153.87 -33.91,-50.79 -38.29,-245.42 -90.27,-271.41 -19.18,-9.61 34.76,-84.81 60.58,-84.81 0,-14.27 21.79,13.69 48.47,3.03 -13.65,-34.15 109.82,-41.81 74.51,-103.59 -20.49,-30.77 32.09,-12.9 -6.66,-38.77 -1.23,-6.14 -13.1,-20.09 -13.93,-17.57 -12.17,0 -6.98,-52.16 4.84,-47.86 21.06,18.44 32.19,0.9 41.2,30.9 -16.08,0 95.54,-34.75 35.74,-4.85 9.66,19.36 60.76,-13.84 32.71,-27.87 0,-35.35 -38.89,-23.4 -32.11,-64.21 13.19,3.28 46.36,-171.5 -36.95,-199.31 6.9,-20.77 -59.37,-21.86 -59.37,-76.33 -32.3,0 -25.97,-18.4 -4.84,-25.45 -7.23,-7.19 20.72,-29.08 -26.06,-29.08 0,-31.09 -45.05,-22.63 -32.1,-48.46 -15.28,-30.6 -14.49,-61.08 -7.88,-47.86 0,2.31 5.45,-11.02 5.45,-38.16 14.42,-14.39 -13.32,-13.01 -13.32,-22.42 -14.17,-3.54 13.74,-16.69 -3.64,-37.56 3.25,-5.85 47.71,-10.74 25.45,-18.17 -21.84,0 -17.42,-112.79 -40.59,-101.17 -3.51,-7.01 10.24,-46.59 -24.24,-12.12 28.5,28.46 -38.05,53.01 -70.27,31.5 14.79,-44.31 3.43,-114.25 -30.29,-46.64 -39.81,9.96 -4.22,-46.15 -1.82,-47.86 12.04,-12.04 -36.59,-158.64 -59.97,-88.45 3.71,18.62 -21.89,-18.56 -41.2,-12.11 8.5,25.44 -22.65,30.63 -25.44,13.93 -0.67,-1.35 -1.45,-1.82 -3.03,-1.82 -2.76,-5.51 32.37,-81.5 -3.03,-70.88 -39.27,3.28 -37.56,29.69 -37.56,26.05 -3.94,-23.74 -116.99,-39.59 -135.7,-11.51 5.53,38.65 33.16,25 16.97,41.2 0,36.88 26.65,-10.3 29.68,-10.3 31.58,7.9 -7.43,52.3 12.72,62.4 -3.69,11.1 -105.41,3.99 -105.41,67.84 -36.53,0 -129.05,8.18 -76.33,-53.3 1.93,-0.97 35.56,-158.31 3.03,-133.89 -6.52,4.36 -16.36,-23.02 -7.27,-28.47 -12.77,-25.49 -29.08,3.86 -29.08,-65.43 -7.83,0 1.54,-61.58 -9.08,-77.54 -3.06,-9.14 13.98,2.87 20.59,-2.42 0,-5.65 -13.33,-46.65 -25.44,-46.65 -28.18,11.27 0.18,-53.16 18.78,-59.37 0,-0.8 7.63,-1.21 9.08,-1.21 47.8,-23.95 52.47,15.93 58.16,18.78 1.21,0 40.65,-75.75 96.93,-38.17 146.48,146.48 84.07,-110.96 115.71,-79.36 0,17.45 24.84,-14.51 24.84,9.09 14.63,0 61.04,-8.52 32.11,-23.02 0,-28.4 60.57,-30.06 60.57,-56.95 -8.08,-32.41 -7.27,-96.92 27.87,-96.92 3.43,1.71 13.93,14.69 13.93,16.96 65.38,32.68 174.48,-159.35 174.48,-119.35 58.37,0 148.42,81.4 148.42,127.83 18.01,18.01 13.12,-24.73 31.5,12.12 -0.6,1.21 18.78,23.62 18.78,22.41 76.11,-25.41 46.95,153.03 108.44,112.07 -11.21,16.84 42.3,22.2 21.81,-18.78 0,-10.08 26.66,15.95 26.66,2.43 4.83,2.42 8.73,-17.02 18.17,1.81 30.99,0 21.81,-3.7 21.81,-30.28 -40.44,0 -108.3,-70.88 -51.5,-70.88 47.06,-70.57 159.33,7.87 159.94,9.69 86.25,-57.46 35.95,74.96 78.14,53.92 1.82,0.6 64.82,23.34 38.78,-15.76 14.39,0 7.87,-76.38 7.87,-106.62 -0.6,0 -11.56,-27.2 -8.48,-30.29 -10.77,-32.33 129.59,-93 90.87,-15.75 0,64.19 33.93,8.53 33.93,61.79 37.8,25.21 227.11,-11.44 241.71,-26.05 11.17,-5.58 38.69,39.25 39.98,41.2 -2.3,5.38 -2.42,8.99 -2.42,10.3 -8.1,8.1 18.02,15.06 29.08,20.59 -3.98,7.95 18.47,12.59 33.93,4.85 0,6.85 36.54,39.21 23.01,52.7 -16.17,10.79 -31.86,35.14 7.88,35.14 0,-3.37 58.5,48.67 34.53,66.64 -28.9,57.8 143.26,129.84 172.05,151.45 0,3.2 -33.21,53.23 10.3,38.77 55.38,0 -42.58,97.94 -21.2,119.35 2.55,0 -66.03,36.6 -21.81,58.76 0,41.63 79.78,15.04 53.31,67.85 0,8.9 7.44,25.55 16.35,20.6 17.8,1.98 70.57,167.2 81.79,167.2 8.23,0.75 14.81,-1.87 19.38,5.45 28.8,86.24 86.98,53.38 104.81,56.95 45.82,0 117.25,93.83 114.5,99.35 -0.61,0 17.21,27.83 41.8,44.22 34.95,34.96 52.07,53.48 109.64,72.7 12.25,24.42 38.17,29.03 38.17,56.34 -17.08,17.08 59.98,94.84 59.98,47.86 21.16,-42.23 130.86,78.15 152.05,99.35 0,7.63 78.93,82.03 26.05,108.44 -3.03,0 11.76,15.01 15.15,13.33 20.92,0 -10.11,3.98 -2.43,19.38 34.81,34.81 -37.46,185.53 -88.44,117.53 -221.9,-110.69 -19.63,183.34 -221.12,233.84 -116.99,12.95 -219.9,96.16 -281.7,158.11 0,112.16 204.61,169.6 126.61,286.55 -1.77,1.77 -26.35,57.55 -21.81,66.63 32.97,11.01 40.93,-5.45 64.22,-5.45 16.2,16.28 78.72,77.2 28.47,102.38 0,8.07 -8.15,142.09 -41.19,109.05 0.6,-0.61 -73.31,-18.2 -73.31,-38.77 -10.1,-5.04 -9.57,-23.06 -26.65,-14.54 -44.89,0 -1.8,-62.26 -15.15,-69.67 0,-49.5 -130.24,-68.97 -130.24,-3.03 -37.24,37.24 -59.46,-19.15 -80.58,-29.68 21.05,-10.55 -24.23,-13.28 -47.25,-9.09 -21.03,-27.03 -86.52,33.5 -67.24,-24.23 23.24,-46.54 -52.97,17.15 -46.04,33.32 74.81,85.46 -28.32,56.34 -68.46,56.34 -6.93,6.89 -64.46,-13.68 -86.02,7.87 -20.18,13.47 -27.05,8.87 -43.02,24.84 -66.34,0 -149.97,-30.66 -142.36,53.31 -29.15,29.22 -106.62,-2.76 -106.62,32.71 -26.8,26.8 38.69,36.96 -18.18,36.96 -12.12,12.12 -36.36,24.23 -54.52,42.41 -76.4,0 21.75,-27.87 -44.83,-27.87 -24.86,33.14 -167.06,49.58 -130.25,12.72 -66.15,-66.47 -14.8,-25.34 -68.45,-52.1 0,-37.22 42.4,-13.8 11.51,-44.83 0,-11.77 -49.07,12.12 -49.68,11.51 -29.72,14.9 -18.5,-15.15 -44.22,-15.15 -57.12,-57.12 -110.02,29.25 -153.27,-9.69 -25.38,-4.62 25.61,-24.23 -23.02,-24.23 -2.27,2.27 8.82,96.91 22.42,113.89 -18.29,73.08 -90.45,139.96 -175.08,156.9 0,-30.12 27.57,-24.71 19.39,-57.55 -7.67,-3.82 33.43,-25.48 -10.31,-47.25 -17.33,-4.34 -3.64,34.46 -41.19,12.72 -16.73,26.42 -10.27,-103.3 -59.37,-95.11 -6.14,-6.15 -40.05,-29.49 -30.29,-49.07 -0.6,-0.61 -108.91,16.69 -86.63,-27.87 12.02,-3.99 -10.35,-24.78 -16.35,-18.77 -39.05,0 -9.8,37.55 -52.71,37.55 0,7.83 -48.45,-6.61 -59.97,-29.68z"/>
  <path class="fil1 str0" d="M1256.34 5719.78c-5.65,3.39 -2.87,26.81 -16.36,13.33 -21.18,0 -19.21,28.75 -34.53,23.02 2.96,-13.32 -14.6,1.06 -21.2,-12.12 -5.79,1.93 -23.63,2.48 -23.63,7.87 -7.26,10.18 -2.48,-7.27 -9.08,-7.27 -1.66,-6.62 -13.96,1.27 -16.36,6.06 -7.04,-5.27 -16.96,-7.46 -16.96,-16.96 -3.74,-7.47 -18.56,7.19 -13.94,-6.66 16.5,-8.27 -20.83,-13.21 -12.11,4.24 13.48,13.48 -38.85,40.05 -20.6,3.63 -3.99,-15.94 -15.45,-32.57 -4.84,-48.46 0,-0.61 -7.16,-1.71 -7.88,-2.42 -13.38,6.67 -11.21,-10.4 -27.26,-15.76 -19.22,14.42 -12.84,-24.14 -34.53,-6.05 -20.13,10.03 -21.4,-14.4 -35.74,-3.64 -11.64,5.82 0.6,10.08 0.6,21.81 16.62,20.76 -12.65,11.63 -3.03,30.9 -16.43,9.86 -35.82,-18.53 -59.37,-9.09 -6.44,1.28 -15.43,-16.4 -17.57,-21.21 15.09,-18.85 14.87,-33.09 -7.27,-24.23 -8.78,-11.71 4.58,-41.72 -15.14,-35.13 -10.09,0 13.85,-30.48 -6.67,-23.63 -5.29,-15.9 -17.49,-15.85 -27.86,-29.68 0.31,-0.31 -5.94,-6.55 -7.27,-7.88 9.58,-19.16 -12.12,-5.08 -12.12,-27.87 -2.47,-4.96 11.51,-4.66 11.51,3.03 1.16,0 2.43,3.44 2.43,-0.6 1.07,-5.39 16.67,-23.5 -3.03,-14.54 5.58,-22.31 -1.96,-13.29 -15.75,-23.63 -3.48,-10.4 -15.86,-15.33 3.63,-21.81 -9.29,-18.57 -41.38,-24 -50.89,-43.01 -13.33,6.68 -19.45,-19.72 -27.26,-6.06 -0.6,-0.6 -23.62,9.17 -23.62,3.03 -4.78,0 -3.03,-9.35 -3.03,-13.33 3.01,-21.16 -13.5,-48.44 10.9,-60.58 3.33,3.33 18.18,7.88 20.6,7.27 11.75,-7.84 20.06,12 25.44,1.21 10.39,6.92 12.17,12.85 24.84,9.7 4.28,-4.31 1.39,8.99 8.48,5.45 0,-8.54 31.5,-14.45 31.5,7.27 16.12,16.12 18.82,-8.8 25.45,-12.12 7.91,-3.94 15.75,3.77 15.75,-9.69 2.14,-2.14 2.96,7.78 13.33,3.64 12.13,-4.55 1.63,15.32 10.9,6.05 1.57,-0.39 19.72,-22.97 23.63,-15.14 18.72,6.22 37.57,-35.12 50.28,-22.42 1.72,-1.72 1.97,-0.52 4.24,0.61 5.9,8.86 9.59,-18.17 24.23,-18.17 3.99,7.95 2.08,2.75 4.85,0 9.64,0 -2.01,-6.7 15.14,-4.25 3.39,-2.02 16.81,1.44 12.72,-0.6 0,-1.76 -0.6,-1.16 -0.6,-2.42 13.15,5.63 -4.53,-18.86 12.72,-14.54 -3.31,16.53 9.9,0.6 16.96,0.6 0,6.7 13.17,-2.87 4.85,5.45 2.83,17.03 0.54,-5.48 9.09,-1.21 4.93,3.7 6.47,1.4 10.3,-2.42 16.05,-18.73 33.73,36.48 38.16,29.08 4.06,-4.05 7.56,3.18 15.75,7.27 7.1,0 36.48,-13.72 30.29,4.84 -1.08,5.41 4.3,16.32 12.73,12.12 5.24,2.63 8.48,-1.62 8.48,6.06 -4.35,8.68 9.91,5.04 13.93,3.03 0.26,-0.27 15.98,-13.45 18.17,-12.72 -6.25,12.54 3.03,22.3 3.03,36.34 -2.05,10.26 18.31,3.5 12.12,9.7 1.48,2.96 11,12.11 -0.61,12.11 2.83,-5.64 -12.61,4.41 -7.27,15.15 0,6.39 -10.62,17.02 1.82,14.54 5.8,5.8 13.59,12.44 -1.21,18.78 0,6.32 -31.86,11.64 -21.2,16.96 0,13.77 -0.95,10.14 10.29,15.75 3.49,5.23 16.94,11.56 11.52,20.6 3.65,3.65 -8.19,11.88 0.6,9.69 4.07,8.12 43.83,10.49 39.38,19.39 0,13.96 19.99,-10.17 19.99,2.42 -12.96,6.45 9.46,9.9 -6.06,12.12 0,3.17 9.58,4.82 4.85,12.72 2.72,2.72 -15.1,15.41 -12.12,19.38 9.01,-9.01 9.98,5.45 1.21,5.45 -3.47,13.95 2.68,17.13 -11.51,24.24 0,2.89 -19.9,-4.57 -16.96,4.24 2.61,1.3 5.45,1.15 5.45,4.24 -4.8,6.41 -15.24,26.23 -18.17,14.54 -6.56,-3.27 -17.21,17.52 -12.12,23.62 12.72,9.54 -8.59,16 7.88,24.24 5.63,11.26 5.63,7 15.75,13.32 -7.23,10.85 15.14,25.83 15.14,20.6l1.82 0.61z"/>
  <path class="fil0 str0" d="M5049.28 2044.97c-35.07,-8.78 -80.02,91.42 -106.62,64.82 -19.86,6.63 -63.76,8.4 -43.62,-21.81 20.01,-21.83 96.63,-149.21 35.74,-118.73 -13.93,2.77 -31.04,-8.68 -41.8,-14.54 -20.73,50.38 -27.09,14.54 -59.37,14.54 -4.09,-8.2 -14.33,0.6 -23.02,0.6 -26.11,26.11 -42.4,-37.08 -42.4,-46.04 -15.82,0 11.66,-21.55 -35.14,-25.44 -12.13,-60.9 -31.42,-25.29 -21.2,-4.85 36.7,36.7 -18.39,36.16 -19.39,38.17 -53.79,0 -37.3,68.45 -81.78,68.45 -2.53,1.26 -36.67,60.8 -23.02,74.52 1.98,9.92 -10.3,-10.47 -10.3,10.29 -11.98,11.99 1.83,14.33 -20.6,21.81 -17.98,-36.04 -20.61,65.78 -42.4,30.9 -23.28,-46.45 -77.59,3.55 -66.64,14.54 -29.18,48.61 -39.86,-34.19 -58.16,2.42 -2.3,6.92 -27.28,-1.89 -13.93,24.84 -10.66,4.26 -19.08,7.88 -34.54,18.17 0,55.32 -78.44,6.06 -30.89,6.06 0,-11.27 -18.78,-11.51 -18.78,4.24 -9.31,9.35 -7.15,-7.27 -16.36,-7.27 -10.77,10.83 -88.19,10.92 -83.6,-12.11 1.55,-5.44 -44.22,-19.99 -44.83,-19.99 -11.1,-5.57 14.56,-1.85 -21.81,-13.94 0,25.88 -66.03,-26.01 -66.03,0.61 -6.84,0 -27.6,6.79 -30.29,5.45 -22.11,-22.11 -40.06,-64.21 -81.78,-64.21 -20.04,5 -12.61,4.96 -27.87,-10.3 -22.6,-33.93 -28.68,24.61 -44.83,-15.75 -20.08,6.69 -25.24,34.47 -38.77,-6.06 -21.69,5.43 -41.12,86.63 -65.43,86.63 -8.69,-17.46 -47.27,19.89 -69.66,18.17 -11.31,-2.26 33.45,23.02 -19.39,23.02 -31.33,10.46 -30.1,-15.89 -70.27,-7.87 -5.37,-3.22 -69.17,41.76 -38.17,52.1 -4.12,20.54 3.11,47.25 -25.44,47.25 -3.6,4.19 -80.3,-34.59 -57.55,10.9 -22.18,11.09 -148.41,-23.89 -111.47,-42.4 1.25,-5.01 3.25,-8.92 0.6,-13.33 -57.64,-22.16 -102.48,-127.12 -130.25,-132.67 -33.55,-16.78 -63.27,65.15 -111.46,-15.15 -9.19,-18.35 -47.76,-15.64 -65.43,-12.11 -13.99,6.99 10.15,-16.68 6.06,-24.84 1.21,0 1.79,-34.47 3.03,-36.96 2.21,-2.21 3.44,-20.27 18.17,-18.17 16.87,5.62 83,-49.07 83,-56.34 -1.21,-1.21 -8.41,-51.47 12.11,-41.19 0,7.62 51.25,4.9 36.35,-24.84 19.18,-6.4 15.51,-71.12 10.9,-75.73 -14.48,-7.24 -8.19,-13.93 -36.95,-13.93 0,-0.61 -31.5,-5.45 -31.5,-30.9 -36.07,-27.04 -18.78,0.38 -18.78,-50.88 -48.04,-48.04 56.72,-116.54 70.27,-102.99 0,34.14 48.61,-4.85 12.73,-4.85 -44.65,14.91 -0.35,-69.06 39.98,-69.06 26.29,-26.3 77.81,-13.66 93.29,1.82 38.83,0 23.63,14.45 23.63,43.01 6.45,16.11 24.84,13.88 36.95,1.82 17.08,-34.2 58.12,38.02 69.67,35.13 0.12,0.32 15.14,-19.11 15.14,-60.57 -15.69,15.69 21.07,-18.02 26.05,-47.86 -11.56,-23.07 1.96,17.34 22.42,-13.33 25.74,-51.48 22.85,-70.28 -21.21,-11.51 -11.6,3.85 9.65,-30.33 -9.69,-10.91 -3.02,6.05 -1.81,13.37 -1.81,20 -3.26,6.49 -2.64,-22.62 5.45,-26.66 40.92,-57.29 79.43,-76.43 147.81,-66.64 38.56,0 131.14,-53.68 139.34,-29.08 -12.96,25.86 6.75,92 32.11,66.64 -6.83,-6.79 -13.68,5.61 -26.05,-10.9 -3.45,0 -1.48,-20.85 -4.24,-23.63 0,-1.28 12.7,-22.4 23.02,-32.71 -3.46,-3.44 -5.03,4 -10.3,-3.03 -37.06,27.78 34.78,-58.21 50.28,-69.06 72.21,-36.11 101.34,-124.67 132.06,-193.86 4.1,-8.19 20.79,-16.32 18.18,-8.48 -17.83,35.82 97.26,32.59 115.71,30.29 20.23,0 136.13,4.84 84.2,4.84 -0.6,-0.6 -25.47,12.73 -53.31,12.73 -30.83,30.83 -52.92,-36.65 -78.14,13.93 -21.65,0 -5.08,-24.61 -24.84,-4.85 -3,0 0.53,11.49 -11.51,5.46 -12.78,4.26 7.54,34.72 -10.3,16.96 -17.66,0 -65.38,22.41 -78.76,22.41 -9.87,19.74 -0.78,33.5 -13.32,46.04 -19.33,9.69 -7.89,51.5 3.63,51.5 9.59,9.58 48.37,9.97 27.26,-0.61 -44.49,-8.91 3.01,-46.64 16.36,-46.64 0,-36.88 29.68,-10.6 29.68,-38.78 -0.6,-0.6 9.88,-7.27 5.46,-7.27 -14.17,-14.16 0.75,-12.72 15.14,-12.72 -13.93,27.88 52.7,-13.87 39.38,-27.26 26.54,0 23.54,-17.37 13.32,3.03 -9.07,27.31 5.46,37.92 5.46,0.6 11.15,-2.22 7.87,-0.41 7.87,10.3 15.42,30.84 4.32,-5.29 22.42,12.72 21.38,0 2.46,-39.79 25.44,6.06 5.29,0 -2.82,20.39 3.64,13.94 0,-3.38 36.95,-9.51 36.95,-38.17 8.23,-8.2 72.7,-67.5 72.7,-33.92 -34.19,34.35 54.79,33.65 24.23,64.21 0,11.32 30.54,93.97 47.86,59.37 2.32,4.65 -17.52,38.12 10.3,10.3 16.91,5.64 9.2,29.23 35.13,20.6 9.45,0 19.99,3.25 19.99,7.87 15.17,7.57 6.95,53.13 36.96,38.17 16.57,0 -11.03,7.27 -11.51,7.27 0,20.02 -16.74,8.48 3.03,8.48 1.21,1.21 29.68,-3.64 29.08,-5.45 0,-18.39 7.87,-0.17 7.87,9.69 -11.52,0 -23.48,25.39 -3.03,4.85 0,-0.61 6.64,15.67 18.17,27.26 -10.4,10.45 32.11,48.56 32.11,26.65 -40.14,-39.96 75.91,-38 94.51,-75.12 15.44,-7.74 -2.28,41.39 29.68,25.45 13.16,26.25 40.34,60.82 18.18,82.99 -2.73,2.73 -4.68,5.9 -7.27,8.48 -18.68,0 102.2,89.15 70.88,104.81 -9.37,0 -57.81,59.37 -25.45,59.37 13.92,-6.97 57.54,60.58 83.6,60.58 0,-2.97 20.9,9.08 26.05,9.08 0.42,0.42 12.12,5.93 12.12,1.21 19.43,19.44 70.78,17.17 82.39,-6.05 53.08,0 10.36,23.55 -0.61,45.43 0,19.2 32.11,-6.57 32.11,13.94 13.05,6.52 -9.97,22.41 5.45,22.41 0,5.07 1.21,14.16 1.21,20.6 17.94,53.73 53.64,135.72 58.16,194.46 13.22,26.38 14.4,44.7 24.84,69.06zm-104.2 -324.71c6.51,-13.08 -4.17,8.95 0,0.61l0 -0.61zm-27.87 -157.51c0,43.61 -110.86,-3.94 -110.86,41.8 0.61,-0.6 -22.61,5.45 -35.14,5.45 -2.89,-2.9 34.36,-9.33 4.25,-19.38 -4.26,-4.25 -6.72,38.1 -38.17,22.41 0,0.61 -29.39,-5.74 -12.11,-23.02 39.94,-19.92 78.1,-44.87 26.65,-96.32 0,-20.61 48.04,-12.37 33.32,2.42 0.09,0.09 -10.39,52.32 2.42,26.66 1.41,-4.21 1.03,-21.43 9.09,-13.33 0.39,-0.39 9.09,-5.64 9.09,-0.6 16.99,0 10.09,27.84 18.78,1.81 11.62,-23.2 0.76,-64.97 -18.78,-45.43 -10.45,-5.24 -8.56,-63.53 -30.9,-41.2 -24.58,0 -28.15,3.36 -13.33,18.18 0,42.13 0.94,-20.68 -9.69,21.81 -29.11,38.78 -16.36,-22.42 -16.96,-23.03 0,-13.98 -34.53,6.18 -34.53,21.81 -46.44,0 32.83,-63.6 -15.75,-87.84 -1.21,0.61 -11.17,-16.87 -8.48,-11.51 -24.62,0 9.96,-57.62 24.83,-27.87 0,5.08 3.07,11.04 4.85,16.97 14.9,33.52 256.47,179.43 200.52,189.62 -7.82,-5.23 9.33,10.32 10.9,20.59zm-133.27 -38.16c1.44,-1.44 1.91,1.81 0,1.81l0 -1.81zm-86.03 -116.92c1.64,-4.94 0.18,0.17 1.21,1.21 0,3.58 -1.21,0.21 -1.21,-1.21zm-1.81 -19.39c0,-2.97 8.32,8.48 1.81,8.48 1.36,-4.08 -1.81,-4.85 -1.81,-8.48zm-1.22 0c-4.31,-3.23 -0.39,-3 0.61,0l-0.61 0zm-44.22 -190.83c0,63.63 -23.29,35.6 -12.12,41.2 0,-28.18 -17.45,6.85 -30.29,-14.54 12.92,-6.47 18.45,-16.97 27.27,-16.97 0,-32.53 -73.7,22.66 -24.24,-10.29 17.81,-26.67 17.38,-13.94 -9.08,-13.94 0,3.2 -3.03,12.12 -4.24,12.72 -64.03,-31.86 -89.97,4.62 -116.32,57.56 -1.21,1.21 -8.6,2.52 -18.78,12.72 14.4,14.33 -5.93,-14.46 12.12,3.63 33.29,-33.28 19.14,62.16 -30.9,12.12 -16.44,0 16.15,-41.51 -1.21,-24.23 -13.35,8.91 -59.04,10.44 -62.4,-9.7 15.14,-30.24 -44.98,28.68 -22.41,-16.35 23.06,0 8.49,-9.09 -19.39,-23.02 -32.36,-48.59 51.49,-34.54 52.1,-35.75 15.59,-7.81 18.18,-39.98 -8.48,-53.31 0,9.11 -43.34,10.33 -27.87,0 12.39,-24.83 44.23,-37.56 45.44,-37.56 3.47,3.5 10.84,-7.24 9.09,-6.66 -13.19,-13.18 -17.57,10.17 -17.57,-21.81 -5.57,-5.6 -15.04,0.61 -29.69,0.61 -51.91,-51.67 60.58,-55.23 60.58,-13.33 0.61,-0.61 8.75,-66.78 34.53,-53.92 0,18.51 -28.31,77.9 12.12,37.56 0,-17.76 -23.31,1.79 -14.54,-15.75 0,-11.18 47.86,68.71 47.86,69.67 47.17,-23.58 -7.92,4.06 27.26,15.75 8.62,0 -12.72,16.96 -12.72,16.96 -11.89,11.94 57.44,16.95 26.05,1.21 -1.21,0.61 12.11,-2.5 12.11,-15.14 -27.01,0 20.31,-27.26 -27.26,-27.26 0.61,0.6 10.1,-42.74 0,-39.38 7.89,-3.94 -10.79,-18.89 2.43,-32.11 0,-9.24 -34.39,29.01 -41.8,-0.6 -18.98,-18.98 -28.83,-45.7 -41.81,-32.72 0,8.46 -69.01,80.45 -45.43,9.7 19.03,-25.39 6.88,-60.36 -4.24,-38.17 0,5.6 -18.46,56.95 -26.05,56.95 -13.47,20.17 -32.36,14.75 -1.21,-6.67 28.01,-32.01 -6.77,-83.6 67.24,-83.6 31.58,-15.77 79.39,-6.04 27.26,19.99 -12.59,18.91 -1.22,42.99 13.33,57.56 11.33,9.44 200.22,-18.48 132.67,49.07 -46.16,0 -73.26,104.19 7.88,104.19 0,11.5 48.89,50.89 46.04,50.89 -7.52,3.77 -10.02,2.77 -13.33,12.72zm-96.93 0c0,-0.16 6.62,3.96 -2.42,8.48 -16.59,16.6 -3.04,2.45 2.42,-8.48zm-202.34 -147.21c8.73,-4.34 9.68,15.13 0.61,6.06l-0.61 -6.06zm-14.54 60.58c0,-68.84 68.56,-35.49 47.26,-24.83 -1.21,1.21 -34.74,24.83 -47.26,24.83zm-2.42 11.51c0,-4.54 9.52,6.59 1.21,2.42l-1.21 -1.21 0 -1.21zm5.45 101.17c8.48,0 5.63,12.9 -2.42,4.85 0,-3.29 -1.85,-4.85 2.42,-4.85zm-32.11 -125.4c0.08,0.15 -3.02,-10.43 -3.02,-16.36 7.36,-29.47 10.25,-150.89 44.83,-93.29 -8.43,8.46 -9.92,-20.09 -5.46,0 0,15.79 -1,-0.39 -6.05,-5.45 0,-24.33 -18.78,49.89 -18.78,56.34 0.6,0.6 -7.88,28.74 -7.88,32.71 1.38,1.39 -1.18,23.59 -3.64,26.05zm-28.47 10.3c19.15,0 22.42,-19.12 22.42,0 -16.12,8.06 -50.98,25.53 -26.66,1.21l4.24 -1.21zm-145.39 43.62c-4.3,-4.28 14.18,-13.2 9.09,-3.03 -4.93,2.47 -2.25,3.03 -9.09,3.03zm6.66 -10.91c0,4.36 -19.99,-2.87 -19.99,-0.6 -25.67,0 13.06,-20.27 19.99,0.6zm-101.17 54.52c2.86,0 5.21,3.03 1.22,3.03 -1.69,1.69 -1.22,7.64 -1.22,-3.03zm-0.6 6.06c0,-1.41 1.3,1.3 1.82,1.82 -2.82,5.65 0.07,0.08 -1.82,-1.82zm-0.61 -7.27c0.4,-0.39 1.49,1.21 -0.6,1.21l0 -0.6 0.6 -0.61zm0 -4.84c-0.6,-0.61 -2.01,1.4 -0.6,0l0.6 0zm-1.21 -2.43l2.42 0c0,3.34 -5.53,0 -2.42,0zm-1.82 -4.24c0,-0.6 -1.21,5.24 -1.21,0.61l0.61 0 0.6 -0.61zm-517.96 318.05c0,-5.57 7.66,-6.45 1.21,0 -0.84,-0.84 -1.21,1.72 -1.21,0zm-56.34 26.05c43.94,-43.83 63.7,-17.65 53.92,-7.88 0,24.25 -18.78,64.83 -18.78,11.51 4.65,-9.29 -19.19,11.72 -7.88,23.02 0,5.09 -5.41,5.49 -15.75,-4.84 0,7.66 -6.99,-10.09 6.66,3.63 -14.12,14.19 -19.61,-18.2 -18.17,-25.44z"/>
  <path class="fil0 str0" d="M3924.91 4720.2c-7.52,0 -2.38,-17.01 -10.3,-9.09 2.76,5.53 -18.32,-6.95 -13.33,3.03 -4.72,4.73 -24.27,-20.59 -48.46,-20.59 33.14,-33.19 -60.56,-67.22 -39.38,-88.45 0,6.05 13.4,-8.84 15.75,-7.27 0,3.23 3.59,5.44 7.27,7.27 0.61,-0.61 5.18,-43.86 -10.9,-59.98 -3.58,0 -60.71,5.88 -15.76,-27.86 22.69,-7.58 3.52,-13.87 28.48,-38.77 0,-7.2 23.63,-3.63 14.54,-14.54 -3.07,-9.21 19.99,-25.5 19.99,-9.09 -3.73,7.44 7.67,67.07 9.69,63 27.49,0 16.06,-24.84 33.93,-24.84 21.66,21.67 43.35,-13.16 21.81,-2.42 -21.54,-21.43 19.1,-20.7 5.45,-41.19 13.7,0 18.51,22.6 23.62,7.27 -3.56,-3.57 2.77,-9.77 4.85,-13.94 -1.72,-3.45 41.33,13.18 35.14,-5.45 -0.61,-0.61 23.31,-22.27 27.86,-19.99 13.13,-6.56 -27.04,-33.21 -32.1,-35.74 -8.23,-16.43 19.73,-25.45 -9.7,-25.45 -9.2,4.61 -7.09,-10.66 -9.69,-5.45 0,-19.27 55.06,-41.19 19.39,-41.19 -33.32,-33.32 20.95,-16.68 16.96,-32.72 0,-1.81 27.55,-0.54 36.95,-19.38 -0.6,-1.22 21.68,-11.51 27.26,-11.51 1.65,1.64 -1.24,6.18 -1.81,8.48 12.51,16.69 26.25,-41.8 52.7,-41.8 16.14,-16.11 54.79,-2.7 73.91,-21.81 0.47,-0.94 -13.53,-78.61 -36.95,-63.01 -2.05,0 -4.12,-0.78 -21.81,-6.66 -8.83,8.79 -0.55,-47.98 -16.36,-16.35 -3.66,1.21 -7.93,-64.12 -29.69,-42.41 -4.11,0 0.97,-25.44 -8.48,-9.7 1.21,0.61 -23.33,9.05 -29.68,-3.63 -17.47,0 -38.54,-21.41 -50.89,-9.09 0,6.97 -20.31,-0.82 -31.5,-2.42 -5.96,-11.92 -18.82,-8.44 -8.48,-18.78 8.36,-25.05 -33.18,-4.51 -15.14,-40.59 13.72,-20.6 -15.95,-4.55 -17.58,-17.57 49.8,-12.46 -49.29,-120.55 0.61,-120.55 11.9,-3.96 -1.21,-53.41 -1.21,-53.92 -4.59,0 -6.93,-19.81 3.03,-21.81 0.39,0.78 -39.71,-45.43 -12.12,-45.43 0,-11.81 23.58,-14.76 19.39,-31.51 -21.61,3.09 -2.19,-35.8 12.11,-39.37 0,-16.29 80.58,-35.74 81.18,-36.35 33.94,0 12.55,-12.01 33.32,-22.42 27.6,27.6 36.74,-12.79 62.4,0 0,-22.07 47.04,-13.46 26.65,-6.66 0,18.66 45,-60.51 67.25,-38.16 13.87,0 47.86,-4.36 47.86,-24.84 20.11,0 26.07,22.12 41.19,29.68 13.15,0 27.86,5.47 33.93,-6.66 9.9,0 -9.05,-10.3 8.48,-10.3 0,-11.28 24.55,-1.62 18.78,15.75 9.6,4.81 1.33,8.6 18.78,-3.03 26.68,44.45 21.64,29.58 35.74,26.05 0,-0.92 33.56,8.89 16.36,37.56 0,1.82 61.26,49.94 35.13,63 3.54,7.05 -20.15,7.32 -7.27,26.66 18.88,18.88 -15.01,47.12 4.85,27.26 19.77,9.91 -4.09,35.14 32.72,35.14 7.42,14.88 39.25,-46.32 46.03,-32.72 41.51,-13.85 3.63,6.08 30.3,-20.59 10.44,-5.23 12.44,23.7 25.44,19.38 3.82,0 43.4,17.73 56.94,44.83 2.46,6.12 15.55,-23.95 27.87,-5.45 -0.68,2.72 81.67,14.2 88.45,0.61 3.25,0.64 22.27,13.51 44.22,-8.49 -1.63,-1.62 58.77,4.1 58.77,-16.35 13.05,-13.05 27.26,42.79 27.26,6.66 16.79,-16.87 5.07,-11.73 24.84,-31.5 -9.76,-19.47 13.1,-17.45 3.02,-37.56 -5.01,-3.76 -15.6,-8.63 -9.08,-15.15 46.63,15.55 9.34,-51.69 53.91,-40.58 -31.1,-23.32 99.96,-18.91 99.96,7.26 3.47,3.48 37.63,-47.5 63.61,-34.53 0,-25.74 62.4,-5.32 62.4,-36.34 9.79,-9.75 14.26,27.3 46.04,19.38 42.64,0 14.15,-32.24 24.84,-39.38 22.4,0 0.09,67.86 59.37,67.86 41.33,41.52 98.14,9.77 98.14,96.32 -8.14,0 13.54,17.9 0,31.5 8.49,17.03 54.38,71.02 44.22,81.18 5.46,10.89 -14.24,8.92 1.82,16.96 0,13.44 -20.58,37.02 -11.51,55.13 0,12.93 -5.82,61.36 -11.51,64.21 14.6,14.6 -18.78,71.84 -18.78,95.12 -18.47,37.01 -25.19,62.99 -56.34,109.64 0,15.6 1.93,69.16 -26.05,55.13 0.6,-0.6 -9.28,-10.1 -16.36,-3.02 -9.81,0 -75.27,-15.45 -58.76,-48.47 0,-24.19 25.71,-51.68 -18.18,-29.68 -46.71,0 15.19,-32.67 -23.62,-71.49 -10.53,0 -23.08,-3.18 -39.99,-13.33 12.04,-42.14 -2.57,6.52 -16.35,-7.27 -5.08,-15.22 -39.45,38.95 -47.86,-3.03 -30.17,0 -30.48,-17.98 -52.1,3.64 -1.21,-0.61 -33.52,64.03 15.15,47.86 0,-7.37 23.39,5.15 -1.22,13.32 -4.5,6.76 11.17,12.03 23.63,15.15 0,13.64 31.5,-4.56 31.5,19.39 -11.21,11.21 -12.8,33.32 -43.01,33.32 -7.1,1.77 -6.9,4.24 -15.15,4.24 -40.59,-13.56 -22.28,22.81 -59.36,35.13 -38.36,9.6 -72.21,60.94 -101.17,32.11 -16.54,0 -59.86,37.84 -52.1,53.31 26.25,26.32 -71.25,34.79 -90.27,28.47 -19.85,19.77 -7.89,11.92 -34.53,3.03 -20.67,20.67 -48.86,14.44 -75.72,27.87 0,2.91 1.48,6.66 4.84,6.66 10.94,21.9 -20.43,90.65 -45.43,78.15 -17.04,0 -40.59,-49.85 -40.59,-24.23 7.25,7.25 -24.23,29.92 -24.23,51.49 -15.72,15.8 -43.62,-23.38 -43.62,-1.81 -2.75,0 -4.85,2.36 -4.85,5.45 -15.93,15.93 1.54,84.95 -53.31,66.64 6.51,-26 -29.5,20.18 -43.62,6.05 -32.88,-16.48 -1.42,79.36 -56.94,79.36 -9.46,4.73 -19.47,-5.75 -50.28,-24.23 -37.59,-37.68 -17.91,32.04 -35.75,-3.63 -9.32,5.18 -47.86,24.56 -47.86,40.59 0.61,1.21 -78.82,-13.85 -89.65,7.87 0,0.61 -20.66,2.61 -23.63,14.54 -6.3,6.29 -9.65,12.82 -5.45,21.2 0,9.27 -47.86,23.17 -47.86,58.77 -8.02,15.99 -36.41,15.63 -21.2,46.04 -25.73,-12.86 -13.85,62.49 -14.54,61.79 -19.72,-9.86 -18.74,0.08 -29.69,-16.36 0,-22.55 10.35,-15.06 -2.42,-36.34 -11.43,3.79 -32.98,-24.69 -6.06,-13.94 9.77,-19.58 -66.84,-18.58 -37.56,-47.86 0,-18.52 -54.77,-10.41 -55.73,-9.69z"/>
  <path class="fil0 str0" d="M4404.1 3544.94c-30.2,20.13 -6.87,-17.57 -36.95,-17.57 0,12.46 -12.3,-7.51 -5.46,15.76 -12.48,-2.5 -12.76,17.49 -18.78,6.66 -14.96,-14.96 -53.96,-28.04 -67.85,-18.78 -13.69,0 -38.82,32.55 -63,8.48 -7.15,-2.39 -19.35,43.01 -39.98,43.01 -18.39,9.21 18.09,-10.9 -2.43,-10.9 -27.35,3.91 -63.25,45.19 -90.87,17.56 -20.77,10.41 0.62,22.42 -33.32,22.42 -4.33,4.33 -18.47,-5.76 -25.44,1.21 0,25.02 -55.74,13.17 -55.74,35.14 -8.69,2.17 -21.2,14.47 -21.2,24.84 31.58,23.67 -55.29,68.51 -1.21,77.54 1.88,14.11 2.42,50.28 2.42,49.67 -0.6,-0.6 4.24,8.14 4.24,26.66 11.25,0 -14.1,18.8 -13.93,19.99 -29.01,4.82 52.06,100.39 11.51,113.89 0,-0.6 27.42,-12.51 9.69,40.59 0,0.61 46.79,18.78 16.97,18.78 0,-1.21 37.16,34.53 29.68,34.53 0,16.96 -34.91,36.35 6.06,36.35 5.42,16.28 -38.17,118.17 -38.17,69.06 -12.04,12.07 -7.57,-17.79 -27.87,-4.24 0.61,1.82 -53.45,-0.6 -77.54,-0.6 0,0.6 -24.83,-15.03 -24.83,-29.08 0.35,0 -2.14,-18.78 -31.51,-18.78 -15.19,-5.05 -28,-42.4 -73.9,-19.39 -0.61,-1.82 -13.45,7.65 -21.21,-7.87 -41.52,-13.8 -22.08,-48.71 -69.06,-36.96 -1.21,2.42 -29.9,-6.06 -40.59,-6.06 0,15.36 -24.84,0.73 -24.84,9.09 -23.33,0 -24.41,-17.82 -27.86,-35.14 -0.61,0 23.08,-20.37 7.87,-23.62 0,-44.7 -85.56,-27.73 -48.46,-64.82 15.74,0 48.46,-26.57 48.46,-46.65 0.12,0.35 -40.22,-32.11 -26.65,-32.11 1.21,-2.42 -33.25,-28.84 -16.97,-32.1 0,-11.54 -29.18,-6.88 -41.8,-32.11 -10.64,21.34 -105.24,-3.8 -110.86,1.82 -13.28,-26.69 -66.03,0.78 -66.03,-7.88 14.37,-21.57 -29.89,7.04 -14.54,-23.63 1.82,-2.42 -0.79,-50.19 -13.93,-43.61 0,-7.97 -6.4,-38.51 -7.27,-39.38 -12.98,6.47 -30.71,-30.71 -21.21,-49.68 0.61,-0.6 23.63,18.62 23.63,-2.42 -21.34,-21.34 -82.14,-30.9 -127.83,-30.9 -33.89,-16.9 -9.99,-91.42 -53.91,-106.01 -54.85,-54.98 43.61,-106.02 18.17,-131.46 0,-10.96 -32.33,-19.03 1.21,-33.93 2.87,-1.43 -72.91,-49.67 -23.02,-49.67 0,4.5 4.46,0.8 7.27,-0.61 2.73,5.46 19.38,-8.45 23.02,-15.75 -15.62,-23.45 32.85,-14.28 46.04,-17.57 8.03,-8.02 182.91,4.83 104.2,-42.4 0,-5.79 10.91,-10.31 10.91,-9.7 5.23,0 8.28,0.81 11.51,-2.42 2.24,2.23 19.38,-17.57 19.38,-16.96 14.32,0 36.53,-38.17 9.09,-38.17 -46.13,-29.65 35.36,-35.75 19.39,-62.4 -2.43,1.22 -33.93,-34.25 -33.93,-41.19 34.66,-31.2 -31.43,-33.05 -5.45,-46.04 0,-0.29 21.2,-3.64 21.2,-3.03 22.09,0 17.02,-33.32 -4.24,-33.32 -0.24,-1.2 -110.9,-112.89 -16.36,-95.72 1.22,-1.21 -54.08,-67.99 -32.71,-75.12 -2.88,-4.8 36.01,-51.12 -1.82,-33.32 -5.17,41.54 -59.78,-81.69 -64.82,-84.2 -15.25,15.25 -43.11,-78.64 -28.47,-100.57 -11.67,-17.51 35.43,-7.25 39.98,-16.35 22.02,22.11 52.44,-20.1 72.09,-26.66 0,-36.43 27.06,-27.87 58.77,-27.87 -4.49,13.44 114.4,27.54 124.19,21.21 7.21,-4.82 23.29,-14.54 30.89,-14.54 10.95,-10.95 38.06,-36.76 57.56,-35.14 -6.73,-15.9 -8.79,-52.39 10.29,-58.76 16.05,16.05 64.2,-61.83 51.5,-10.91 0,28.51 30.89,-10.75 30.89,26.05 0.1,0.48 33.83,2.23 55.13,23.63 11.61,1.45 37.48,-0.97 31.5,16.96 -38.73,38.69 101.49,56.94 108.44,43.02 7.69,-11.52 19,26.72 38.77,-7.88 15.88,7.95 -20,47.84 26.05,24.84 30.15,-30.15 56.19,70.91 19.99,89.05 0,25.4 -0.95,57.2 20,78.15 0,18.91 3.08,56.94 -33.93,41.8 -3.21,9.65 12.45,64.63 -13.33,77.54 0,18.29 32.69,-19.94 13.33,18.78 9.87,29.57 20.14,3.13 29.08,12.12 11,-54.91 25.64,29.84 39.38,2.42 13.55,-6.79 12.78,7.94 19.38,14.54 -10.04,10.03 -30.22,66.42 -14.54,61.19 6.23,10.38 -5.22,13.02 -3.03,21.81 12.94,25.89 -36.62,129.64 -6.66,129.64 22.84,-7.63 -40.52,53.72 -18.78,63.61 -7.26,16.92 108.82,155.81 124.8,107.83 0.6,0 40.59,25.44 40.59,27.26 29.18,58.64 56.43,-39.94 100.56,4.24 11.97,8.55 30.29,1.49 30.29,23.02 25.87,0 41.19,-12.13 41.19,18.78 2.86,25.68 66.64,-22.6 66.64,32.72 47.04,-23.52 27.95,24.83 41.8,24.83 19.63,3.28 12.75,-3.63 25.44,-3.63 35.53,-7.08 33.41,12.72 14.54,12.72 5.98,29.85 38.3,50.31 16.97,78.76 1.97,0.65 31.46,47.25 7.27,47.25 -6.83,6.82 8.42,15.48 -0.61,19.99 0,6.42 -48.26,34.6 -54.52,38.77z"/>
  <path class="fil0 str0" d="M3821.92 4631.15c-12.88,0 -27.4,22.41 -40.59,22.41 -13.68,27.3 -18.26,-31.42 -41.19,-8.48 -10.05,-5 -11.82,1.71 -30.29,10.9 0,2.04 -2.43,3.82 -2.43,0.61 -2.92,-7.3 -49.59,24.45 -61.79,0 -19.58,-6.54 -46.04,47.76 -46.04,4.24 -17.55,17.47 -20.6,-18.67 -20.6,-29.08 -6.18,-12.43 -27.16,20.48 -18.17,2.43 1.96,-9.78 -11.75,-8.73 -16.36,-13.33 -10.54,-36.94 29.01,-54.29 -14.54,-63.01 -21.74,-32.63 -51.94,48.38 -58.76,27.87 -36.77,0 -11.55,80.37 -3.03,106.02 6.69,8.92 -13.72,-1.96 -1.82,24.23 -17.65,0 3.41,83.37 -28.47,51.49 -13.55,-27.13 -16.64,7.88 -27.26,7.88 -2.83,-8.48 12.33,-5.38 -2.42,-12.72 -14.97,4.97 -35.49,-27.31 -9.09,-33.93 0,-54.17 -65.15,-19.94 -62.4,-25.44 -4.16,0 -13.31,-10.3 -28.47,-10.3 0,47.71 -18.77,-36.8 -43.62,-18.17 -3.61,3.6 -62.9,-11.48 -78.15,13.93 -7.86,2.62 -53.42,20.6 -24.84,20.6 0,19.5 -13.14,28.52 17.57,38.77 4.15,12.42 31.5,10.14 31.5,23.02 35.02,0 20.6,24.42 -4.24,32.71 0,-11.83 -44.83,-1.21 -45.43,-1.21 0,38.13 5.7,20.98 -16.96,26.66 -17.06,-30.69 -46.65,10.74 -46.65,-34.54 -5.67,0 -11.51,-30.15 -11.51,-52.09 19.84,-19.94 -13.92,-19.37 -23.63,-29.08 0,-21.67 -15.12,-21.29 -19.38,-4.24 -0.34,0 -7.15,-5.46 -13.94,-5.46 5.38,-10.73 -29.44,-37.69 -29.68,-36.95 0,7.61 -19.41,4.23 -23.02,1.82 -18.88,0 22.14,-35.54 -14.54,-30.29 0,-5.99 -16.78,-46.57 -32.71,-54.53 -11.83,5.91 -55.78,-23.54 -47.86,-31.5 -4.53,-4.53 -13.64,-20.59 -17.57,-20.59 -16.68,11.11 -22.44,5.45 -35.14,5.45 0,-49.65 -50.28,58.45 -50.28,13.93 13.68,-13.67 -8.97,-107.11 22.42,-75.72 35.86,-36.04 -81.42,-68.94 -72.1,-31.51 29.2,19.45 -13.3,33.92 -23.62,13.33 -2.85,0 -3.69,2.85 -6.06,3.64 -15.69,7.81 -8.66,-31.56 -3.63,-35.75 0,-5.9 38.53,-37.48 28.47,-57.55 -4.54,-2.27 -15.95,-35.82 0,-27.86 14.89,0 -8.52,-29.52 19.99,-50.89 13.24,8.84 25.75,-0.05 33.32,-15.15 -5.48,-5.47 0.17,4.47 -10.9,-6.66 20.89,-20.89 29.33,-54.52 -7.88,-54.52 -12.89,12.89 -24.77,12.65 -17.57,5.45 3.09,-4.64 16.22,-24.11 7.27,-15.14 -15.06,0 -8.04,-3.3 -13.33,7.27 -8.54,8.54 -3.03,-8.64 -3.03,-11.52 -10.4,-10.37 34.22,0.32 34.54,0 0,-10.4 10.27,4.25 21.2,-3.02 2.47,-4.94 -18.18,-24.51 -18.18,-41.2 -3.49,-6.98 4.27,-10.22 2.43,-15.75 0,-10.44 36.59,-3.41 40.58,0.61 0.66,0.97 13.94,-13.63 13.94,4.84 41.91,0 70.4,-30.42 7.27,-51.49 0,-1.26 7.12,-10.68 6.66,-10.91 0.77,-1.53 -4.47,-8.01 -3.03,-10.9 -2.81,-1.88 14.11,-24.49 13.94,-24.84 5.46,-10.9 -14.54,-0.03 -14.54,-12.11 -5.33,2.66 -9.46,-13.59 -13.93,-9.09 -3.86,-3.85 24.7,-22.79 30.89,-4.24 7.01,0 -2.15,30.74 15.75,21.81 0.92,-0.93 1.67,-1.97 0.61,-3.03 0,-16.02 -7.81,-34.59 12.11,-47.86 8.34,-24.98 -74.99,-39.55 -85.42,-43.01 0,-30.78 -18.86,-17.37 -7.26,-40.59 -14.29,-14.28 -49.07,-3.69 -49.07,-25.45 -16.27,-8.15 -24.24,-36.14 -24.24,-63 18.98,0 38.93,-41.8 61.19,-41.8 3.44,-4.59 6.67,-14.84 10.9,-12.72 9.98,20.01 16.11,-0.61 40.59,-0.61 0,7.61 10.58,-4.35 13.33,-8.48 0,-9.81 33.06,-32.46 29.69,-29.08 7.95,0 1.4,3.1 16.96,0 2.93,-11.71 25.84,-8.85 35.13,-32.11 56.6,0 8.01,-94.65 77.55,-59.97 22.39,0 41.11,45.82 64.21,16.96 3.81,0.76 29.69,-29 29.69,-3.63 14.08,0 19.99,17.54 19.99,-11.51 -2.5,0 -3.83,-0.81 -6.67,-1.21 -37.36,-24.9 48.88,-80.77 92.09,-37.56 6.04,0 35.13,-14.96 35.13,10.3 9.5,2.71 32.63,-11.24 23.63,15.75 0,2.84 -16.75,0.66 -18.78,-5.46 0,-0.19 -11.45,13.96 -0.61,19.39 8.47,16.9 -0.09,30.29 24.24,30.29 13.06,6.55 -17.92,20.09 4.84,31.5 -6.51,6.49 8.86,8.66 15.15,21.2 -6.47,0 -9.18,17.35 -1.22,20 -12.27,36.84 26.07,14.5 13.94,32.71 0,3.39 40.48,-5.88 50.89,-2.42 0,24.59 63.53,7.27 73.3,7.27 17.3,12.97 11.68,17.2 38.16,7.26 11.31,-2.81 12.69,-9.76 18.78,2.43 8.63,25.84 34.54,0.55 34.54,24.84 -12.78,12.77 21.2,28.47 19.99,30.89 -16.68,0 27.26,28.32 27.26,33.93 -2.27,-6.81 -20.02,28.92 -23.02,33.92 4.49,4.51 -29.44,20.45 -29.69,21.21 -13.46,17.96 13.65,25.6 28.47,18.17 13.48,0 46.79,53.29 13.94,56.95 0,60.3 53.49,25.44 80.57,25.44 7.25,4.83 13.33,15.75 12.72,15.15 0,-22.61 38.55,-5.59 43.62,9.69 0.61,0 0.09,8.91 1.21,14.54 33.1,0 28.7,34.42 70.88,13.32 24.81,0 31.89,-10.65 46.65,11.52 -14.22,7.09 10.9,5.45 11.51,6.66 30.73,0 16.63,44.08 39.38,32.71 1.9,0.95 9.2,10.86 3.02,13.93 1.96,11.71 41.5,-5.59 52.71,0 2.44,1.64 3.74,1.74 6.66,4.25 1.47,-1.47 29.69,14.6 29.69,-5.46 19.06,-9.52 17.22,36.76 30.89,23.02 1.33,-2.66 15.37,-52.09 24.24,-52.09 3.77,-2.52 17.37,-29.69 3.02,-29.69 -2.96,-8.93 -17.56,9.95 -17.56,-4.85 9.7,-1.94 5.13,-53.43 34.53,-43.61 9.63,-3.85 8.38,-15.25 21.81,-1.82 -7.05,21.12 37.48,9.05 46.04,13.33 1.05,-2.11 19.42,2.73 32.11,9.08 2.46,4.92 13.2,59.45 10.29,33.32 25.49,-8.47 -3,24.84 23.63,24.84 22.52,22.42 39.38,-22.75 39.38,48.47 8.15,4.08 5.91,5.31 10.9,10.29 19.55,39.29 -107.57,8.41 -96.93,50.89 -7.77,7.77 -14.86,40.98 -27.86,23.63 3.29,-13.14 -25.59,0.19 -35.14,19.38 0,17.81 -44.01,-10.73 -24.23,9.09 -2.25,3.38 -3.75,0.33 -4.85,-2.42 -0.6,-0.61 -27.87,10.3 -27.26,10.3 11.84,23.79 36.95,18.06 12.72,42.4 -33.72,-13.47 -18.26,33.36 -7.27,22.42 17.31,-4.33 -4.52,57.06 27.26,41.19 31.62,0 -1.98,41.13 -14.53,36.96 -5.84,2.91 -10.83,21.65 -24.24,12.72 -12.91,0 -11.06,-17.19 -19.38,7.87 0,22.31 -10.18,-1.32 -13.33,-6.05 -21.89,0 4.37,22.59 -19.99,26.65 -21.91,9.96 18.17,12.06 18.17,21.2 -13.4,6.72 -25.74,5.15 -33.92,-3.03 -19.61,0 -3.82,17.85 -19.39,23.02 -4.57,9.19 -36.7,-2.07 -15.75,-23.02 -4.48,-8.94 -13.46,-50.14 -18.78,-44.82 -3.36,6.72 -18.18,29.67 -22.41,25.44 -7.78,7.76 -25.32,35.84 -19.39,41.8 0,-7.03 -54.29,19.12 -12.72,35.74 16.08,0 19.94,-9.1 36.95,24.84 0,1.16 -10.3,15.14 -10.9,15.75 -5.36,5.36 14.02,18.63 -6.67,4.85 -5.2,10.39 -35.26,14.2 -13.93,24.83 -1.08,3.25 20.25,-2.07 8.48,9.7z"/>
  <path class="fil0 str0" d="M4616.14 2669.54c0,-12.9 -26.53,-29.81 -38.79,-17.54 28.42,7.1 -74.5,51.15 -74.5,24.21 -0.51,-0.51 2.73,-4.84 0,-4.84 -11.12,-22.25 -44.83,20.17 -44.83,48.48 -2.7,9.47 -26.14,-10.22 -39.38,3.02 -20.74,0 9.81,7.62 3.02,21.2 -5.4,27.01 -30.11,30.73 12.73,47.87 -30.06,40.06 -14.41,49.45 -25.44,67.83 -26.11,12.99 24.83,54.95 24.83,24.85 43.2,-23.03 51.06,5.57 72.7,-14.53 0,0.58 77,46.6 69.07,18.76 -4.65,-13.14 4.6,-34.34 21.19,-26.04 19.67,47.14 97.55,-5.38 97.55,66.03 2.56,0 46.02,-66.69 46.02,-84.21 -3.91,-1.29 22.86,0.07 -18.18,-27.26 -3.31,-3.33 -91.99,10.83 -29.06,-52.11 -1.53,-9.1 -27.33,-6.76 -42.42,-36.94 -46.48,0 -34.51,-37.31 -34.51,-58.78z"/>
  <path class="fil0 str0" d="M2228.65 2313.94c-1.24,-2.5 -15.14,0.25 -15.14,-8.47 -16.7,-16.72 26.72,-4.79 -9.08,-40.59 -39.91,0 -26.16,29.59 -66.63,-10.91 -15.87,0 -133.08,-25.14 -113.3,-39.98 0.37,-1.12 -84.69,-34.56 -50.28,0 65.69,0 104.73,152.67 119.35,152.67 0,-35.22 53.45,21.05 61.77,12.7 15.51,-7.76 -3.01,-28.47 18.79,0.61 7.25,28.94 64.38,-31.32 40.6,-55.12 -5.97,-2.97 11.68,-9.79 13.92,-10.91z"/>
 </g>
</svg>
